<svg preserveAspectRatio="none" width="100%" height="100%" overflow="visible" style="display: block;" viewBox="0 0 48 48" fill="none" xmlns="http://www.w3.org/2000/svg">
<g id="Instructors_1.svg" clip-path="url(#clip0_0_12)">
<path id="Vector" d="M47.5253 23.7626C47.5253 10.6389 36.8864 0 23.7626 0C10.6389 0 0 10.6389 0 23.7626C0 36.8864 10.6389 47.5253 23.7626 47.5253C36.8864 47.5253 47.5253 36.8864 47.5253 23.7626Z" fill="var(--fill-0, #869274)"/>
<path id="Vector_2" d="M35.3523 35.6698C35.1434 35.547 34.8928 35.4191 34.6298 35.284C34.158 35.0407 33.3643 34.6352 33.3176 34.4436C33.1898 33.9325 33.6247 32.6596 33.8607 31.974C33.9246 31.7873 33.981 31.6251 34.0155 31.5071C34.6249 29.4725 34.3398 28.5387 34.1138 28.1651C33.6174 27.3395 31.1084 27.5705 30.2386 27.6786C30.7448 25.7644 30.5457 24.4963 30.4818 24.1892C30.5654 24.027 30.7423 23.5921 30.5924 23.0514C30.4155 22.4199 29.865 21.8694 28.9509 21.4173C28.9386 21.4124 28.8551 21.3755 28.833 21.3657C28.4963 21.2084 28.3784 20.9382 28.3366 20.7465C28.6388 20.8153 29.123 20.8644 29.3343 20.5474C29.4719 20.341 29.4965 19.7931 29.5014 19.6309C29.5136 19.1418 29.4571 18.6209 29.3442 18.1687C29.1254 17.289 28.6978 16.6575 28.1081 16.3405C27.9509 16.257 27.7911 16.1931 27.6338 16.1513C27.5822 15.8933 27.5109 15.6402 27.4176 15.3919C27.076 14.4877 26.5747 13.2025 26.1152 12.1704L26.1226 12.1483C26.3806 11.271 26.6263 10.443 26.0611 9.45019C25.9825 9.31505 25.8498 9.2241 25.6926 9.20199C25.5353 9.17988 25.378 9.23151 25.265 9.34209C24.5228 10.0645 24.2255 11.2317 24.5425 12.1803L24.8914 13.2295C24.8914 13.2295 24.8939 13.2369 24.8964 13.2418C24.9062 13.264 25.5475 14.8366 25.8031 16.7533C25.582 16.9892 25.4026 17.2694 25.3043 17.5373C25.3043 17.5422 25.292 17.5716 25.2895 17.5815C25.1618 17.5102 24.9873 17.4291 24.7956 17.3898C24.7342 17.3775 24.6727 17.3701 24.6114 17.3701C24.2919 17.3701 23.9994 17.5373 23.8299 17.8173C23.1246 18.9895 24.8226 21.2797 24.8939 21.3756C24.9283 21.4198 24.9799 21.4444 25.0339 21.4444H25.0364C25.1102 21.4444 25.179 21.3977 25.2011 21.3264C25.2109 21.292 25.2134 21.26 25.206 21.2281C25.1814 21.0192 24.9774 19.2303 24.9774 18.5324C24.9774 18.1933 25.1052 18.068 25.2404 18.0287C25.3018 18.5644 25.6778 19.304 25.7982 19.535C25.663 19.9503 25.1077 21.9138 26.1766 23.4938C26.2086 23.6118 26.2455 23.7395 26.2872 23.8746C26.5428 24.7421 26.8942 25.9314 26.4666 27.0249C26.2233 27.6491 25.8252 28.0325 25.5033 28.2978C25.405 28.3789 25.3092 28.4526 25.2183 28.5239C24.9161 28.7574 24.6556 28.9613 24.545 29.234C24.368 29.6764 24.3484 30.0843 24.3509 30.2883C23.8864 30.4725 22.1909 31.1655 21.1219 31.829C20.4806 32.2246 19.8171 32.114 19.188 31.9666C19.1094 31.947 19.0307 31.9298 18.9546 31.9101C18.5122 31.8019 18.0945 31.6987 17.6989 31.7454C16.915 31.8389 15.0302 32.3942 14.2562 32.6276C14.0718 32.6841 13.8753 32.6522 13.7205 32.5392C13.5436 32.4138 13.3175 32.372 13.116 32.4335C12.6859 32.5613 12.3592 32.9274 12.2854 33.3697L11.9831 35.1808C11.9684 35.2692 11.9659 35.3626 11.9831 35.451C11.9905 35.4978 12.0053 35.547 12.0274 35.5961C12.1404 35.8492 12.4206 36.2399 13.0963 36.2399C13.1651 36.2399 13.2389 36.2349 13.315 36.2276C13.7475 36.1784 13.9957 36.0482 14.0743 35.8246C14.175 35.5347 13.9883 35.2865 13.8851 35.2324C13.718 35.1414 13.4994 35.0751 13.4994 35.0751L14.4675 34.4092C14.7206 34.2347 15.0327 34.1438 15.3399 34.1586L21.3234 34.4263C21.3234 34.4263 21.3308 34.4263 21.3332 34.4263C21.3824 34.4263 22.5521 34.4067 24.0437 33.9865C25.3952 33.6031 27.2578 32.8021 28.5504 31.1582C29.1573 31.34 30.4794 30.8854 31.7941 30.3939C31.8654 30.3669 31.9341 30.3423 31.998 30.3177C31.7744 30.8264 31.6516 31.593 31.6294 32.6105C31.6098 33.5049 31.6786 34.3109 31.6933 34.473L31.4476 35.5346C31.423 35.6379 31.4255 35.746 31.4574 35.8467C31.5287 36.0556 31.7106 36.1957 31.9218 36.2178L35.0893 36.4979C35.1066 36.4979 35.1237 36.5004 35.1385 36.5004C35.3326 36.5004 35.4997 36.3775 35.5587 36.1858C35.6202 35.9892 35.5292 35.773 35.3498 35.6698H35.3523ZM24.626 18.5349C24.626 19.0092 24.7146 19.9331 24.7808 20.5818C24.3017 19.7931 23.7537 18.6185 24.1272 17.9968C24.2329 17.8223 24.4122 17.7166 24.6089 17.7166C24.6457 17.7166 24.685 17.7215 24.7219 17.7289C24.7956 17.7437 24.8669 17.7682 24.9332 17.7953C24.7121 17.9623 24.626 18.2622 24.626 18.5324V18.5349ZM25.5795 17.8911C25.5795 17.837 25.6262 17.6724 25.6287 17.6674C25.6778 17.5274 25.7589 17.38 25.8571 17.2374C25.9087 17.7854 25.9235 18.3531 25.8818 18.9109C25.7294 18.5669 25.5795 18.159 25.5795 17.8911ZM26.1521 19.5817C26.1521 19.5817 26.1521 19.5768 26.1521 19.5719C26.1546 19.5645 26.157 19.5571 26.1594 19.5474C26.1594 19.5474 26.1594 19.5474 26.1594 19.5449C26.6116 16.6625 25.3608 13.4679 25.2257 13.1312C25.2208 13.119 25.2158 13.1067 25.2109 13.0919L24.8694 12.0697C24.5941 11.244 24.8546 10.2243 25.5033 9.59271C25.5402 9.55828 25.5894 9.54111 25.6385 9.54849C25.668 9.55338 25.7196 9.56815 25.7515 9.62465C26.243 10.4872 26.0292 11.2121 25.781 12.05L25.7564 12.1336C25.7442 12.1729 25.7466 12.2171 25.7638 12.254C26.2258 13.286 26.7369 14.5983 27.0834 15.5148C27.2874 16.0579 27.3832 16.6255 27.366 17.2079L27.2825 20.0191C27.2677 20.5499 27.3193 21.0807 27.4397 21.5967C27.4593 21.6778 27.5306 21.7319 27.6092 21.7319C27.6462 21.7319 27.683 21.7195 27.7174 21.695C27.7739 21.6533 27.7936 21.5795 27.7788 21.5107C27.6682 21.0242 27.6191 20.5254 27.6338 20.0265L27.7174 17.2153C27.7247 16.9867 27.7149 16.7583 27.6879 16.5322C27.7714 16.5617 27.8526 16.5985 27.9361 16.6428C28.5676 16.9843 28.8625 17.7043 29.0001 18.2499C29.2482 19.2475 29.1254 20.2255 29.0394 20.3533C28.9338 20.5131 28.4718 20.4418 28.1966 20.3435C28.145 20.3262 28.0884 20.3312 28.0418 20.3607C27.9951 20.3901 27.968 20.4393 27.9631 20.4934C27.941 20.7858 28.0687 21.3928 28.688 21.6803C28.7421 21.9309 28.865 22.7492 28.2629 23.2234C27.624 23.7247 26.6632 23.3684 26.4519 23.28C25.3927 21.6926 26.1398 19.599 26.1496 19.5793L26.1521 19.5817ZM26.7909 27.1552C27.2628 25.9511 26.8917 24.6954 26.6214 23.7788C26.6141 23.7543 26.6067 23.7321 26.6018 23.7076C26.8156 23.7739 27.1104 23.8402 27.4274 23.8402C27.7788 23.8402 28.1573 23.7592 28.484 23.5012C28.86 23.2062 29.0689 22.7664 29.0886 22.2282C29.0934 22.1005 29.0886 21.9825 29.0763 21.8817C29.725 22.2528 30.1206 22.673 30.2533 23.1399C30.3958 23.6412 30.1796 24.0197 30.1526 24.0639C30.123 24.1032 29.8183 24.4693 29.2974 24.376C29.2016 24.3587 29.1107 24.4226 29.0959 24.5185C29.0788 24.6143 29.1426 24.7052 29.2385 24.72C29.3195 24.7347 29.3958 24.7397 29.467 24.7397C29.7766 24.7397 30.015 24.6241 30.1796 24.5086C30.2459 25.0345 30.3025 26.214 29.8331 27.8383C29.6758 28.3839 29.467 28.9146 29.2114 29.4306C26.9924 30.0548 26.0709 28.863 25.8376 28.4747C26.1668 28.1873 26.5477 27.7818 26.7934 27.1527L26.7909 27.1552ZM14.266 34.1241L13.0202 34.9842C12.9538 35.0309 12.9268 35.1169 12.9587 35.193C12.9784 35.2422 13.0202 35.2766 13.0693 35.2938L13.5706 35.4757C13.6443 35.5026 13.7082 35.5592 13.7352 35.6329C13.7475 35.6624 13.75 35.6919 13.7426 35.7115C13.7229 35.7681 13.5878 35.8467 13.2757 35.8836C12.6834 35.9499 12.4476 35.6845 12.3567 35.4978C12.3542 35.4904 12.3493 35.4732 12.3468 35.4486C12.3296 35.3307 12.3321 35.2103 12.3518 35.0923L12.6294 33.4312C12.681 33.1191 12.9096 32.8611 13.2118 32.7726C13.3125 32.7431 13.4256 32.7628 13.514 32.8291C13.7574 33.0011 14.0694 33.0552 14.3545 32.9668C15.1187 32.7357 16.9814 32.1853 17.7382 32.0969C18.07 32.0575 18.4582 32.1534 18.8685 32.2542C18.8981 32.2614 18.9275 32.2688 18.957 32.2762L18.785 33.9644L15.3522 33.812C14.9663 33.7949 14.583 33.9054 14.266 34.1241ZM21.3308 34.0774L19.1364 33.9791L19.3011 32.3549C19.9228 32.4875 20.6206 32.5515 21.3038 32.1312C22.4981 31.3916 24.572 30.5807 24.5941 30.5733C24.6678 30.5438 24.7121 30.4701 24.7047 30.3915C24.7047 30.3866 24.6556 29.9 24.8669 29.3693C24.9406 29.1824 25.1667 29.008 25.4296 28.8041C25.4739 28.7696 25.5181 28.7352 25.5623 28.7009C25.6877 28.895 25.926 29.2021 26.3142 29.4651C26.8549 29.8312 27.4544 29.9565 28.0245 29.9565C28.3637 29.9565 28.6904 29.9123 28.9878 29.8459C28.8723 30.0548 28.747 30.2587 28.6143 30.4602C28.5823 30.5094 28.4079 30.7601 28.3489 30.8411C26.0169 33.9423 21.4954 34.0774 21.3283 34.0799L21.3308 34.0774ZM31.6687 30.0671C30.9561 30.3325 29.3958 30.9124 28.7716 30.851C28.7838 30.8338 28.8773 30.6986 28.9092 30.6495C29.4474 29.8337 29.8577 28.9589 30.1329 28.0447C30.3909 28.0103 31.0716 27.9317 31.7867 27.917C32.8998 27.8973 33.637 28.0521 33.8116 28.3446C34.1506 28.9097 34.0254 29.927 33.8681 30.6642C33.1062 30.7871 32.541 30.5954 32.3003 30.4898C32.3642 30.335 32.4378 30.2096 32.5214 30.1162C32.5706 30.0597 32.578 29.9811 32.5435 29.9147C32.5067 29.8508 32.4354 29.814 32.3617 29.8263C32.2634 29.8434 32.0669 29.9147 31.6687 30.0622V30.0671ZM35.2269 36.0851C35.2195 36.1072 35.195 36.1564 35.1237 36.149L31.9563 35.8688C31.8997 35.8639 31.8481 35.8344 31.8162 35.7853C31.7818 35.7386 31.7719 35.6821 31.7842 35.6256L32.0398 34.5222C32.0447 34.5026 32.0447 34.4853 32.0422 34.4657C32.0422 34.4559 31.9563 33.5885 31.9783 32.6129C31.9956 31.8708 32.0669 31.2688 32.1897 30.8215C32.4158 30.9198 32.8262 31.0525 33.3716 31.0525C33.5019 31.0525 33.6395 31.0426 33.7845 31.0254C33.7452 31.1827 33.7083 31.313 33.6788 31.4039C33.6444 31.5145 33.5904 31.6742 33.5289 31.8585C33.2488 32.6767 32.8262 33.9128 32.9785 34.5246C33.0596 34.8441 33.5953 35.1414 34.4701 35.5912C34.733 35.7263 34.9837 35.8541 35.1852 35.972C35.2442 36.0065 35.2343 36.0605 35.2269 36.0826V36.0851Z" fill="var(--fill-0, white)"/>
</g>
<defs>
<clipPath id="clip0_0_12">
<rect width="48" height="48" fill="white"/>
</clipPath>
</defs>
</svg>
