<svg preserveAspectRatio="none" width="100%" height="100%" overflow="visible" style="display: block;" viewBox="0 0 48 48" fill="none" xmlns="http://www.w3.org/2000/svg">
<g id="Practice_1.svg" clip-path="url(#clip0_0_4)">
<path id="Vector" d="M47.5253 23.7626C47.5253 10.6389 36.8864 0 23.7626 0C10.6389 0 0 10.6389 0 23.7626C0 36.8864 10.6389 47.5253 23.7626 47.5253C36.8864 47.5253 47.5253 36.8864 47.5253 23.7626Z" fill="var(--fill-0, #869274)"/>
<path id="Vector_2" d="M39.9718 27.3054C39.365 25.9518 37.4488 25.8633 36.6528 25.8903C36.3359 25.9002 36.073 26.136 36.0288 26.448L35.9797 26.787L35.5645 26.7133C35.5302 26.1802 35.3802 24.2837 35.0118 23.441C34.8914 23.1634 34.8054 22.871 34.7611 22.5689C34.6555 21.8588 34.5007 21.0235 34.4639 20.827C34.5278 20.6084 34.7759 19.6306 34.5426 18.3016C34.319 17.0314 34.4983 16.2601 34.5327 16.1323L34.9012 15.5403C35.0044 15.3756 35.0609 15.1963 35.0756 15.0145C35.0854 14.8818 35.1125 14.7516 35.169 14.6288C35.2378 14.4765 35.336 14.3242 35.4441 14.2996C35.4957 14.2873 35.5448 14.2554 35.5621 14.2062C35.6161 14.049 35.4859 13.9311 35.3582 13.963C35.1666 14.0097 35.0265 14.1669 34.9282 14.334C34.857 14.2062 34.7587 14.0908 34.6384 13.9926L34.5622 13.9311L34.7562 12.9263C34.7735 12.8428 34.7317 12.7568 34.6506 12.7249C34.545 12.6831 34.4345 12.7494 34.4123 12.8526L34.2133 13.882L34.088 13.9458L33.9308 12.7076C33.9186 12.6118 33.8301 12.543 33.7367 12.5553C33.6409 12.5676 33.5721 12.6536 33.5844 12.7494L33.7564 14.1104L33.6508 14.1645L33.1177 12.9091C33.0858 12.8305 33.0022 12.7814 32.9187 12.801C32.8081 12.8256 32.7516 12.9411 32.7933 13.0393L33.3388 14.3192L33.1324 14.4224L32.4495 13.5478C32.3831 13.4619 32.2529 13.457 32.1792 13.5429C32.1227 13.6068 32.1251 13.7026 32.1792 13.769L32.9261 14.7222L33.2085 15.7711C33.1619 16.1937 32.7565 19.9599 32.953 20.7902C32.8646 22.5909 32.899 23.8194 33.0611 24.4482C32.5305 24.888 30.3047 25.8903 29.4302 26.2662C29.1354 26.3374 25.6124 27.2341 24.2908 28.9391C23.0624 30.5237 22.151 31.9067 22.0256 32.1008C21.9029 32.2015 21.2322 32.7346 20.6769 32.9558C19.9989 33.226 18.0704 35.0586 17.3432 36.3976C16.6332 37.0781 16.1394 38.1222 16.1394 38.6406C16.1394 39.041 16.6357 39.434 17.2007 39.4832C17.353 39.4955 17.5029 39.4439 17.611 39.3407C17.7191 39.2375 17.7756 39.0877 17.7682 38.9304L17.7215 37.992C17.7117 37.793 17.7805 37.599 17.9131 37.4515L17.9279 37.4368C18.2374 37.0928 18.5936 36.7907 18.9868 36.5401C19.7778 36.034 20.7727 35.356 21.1069 34.9383C21.7702 34.6878 24.0647 33.172 25.4454 31.919C26.266 31.1771 27.0766 31.3098 27.6122 31.553C28.079 31.7643 28.6023 31.9338 29.1648 32.0566C30.1549 32.2728 31.5994 32.5381 32.9211 32.5996C33.0243 32.8746 33.3019 33.597 33.555 34.076C33.5623 34.1522 33.5721 34.2234 33.582 34.2922C33.609 34.4716 33.6066 34.6435 33.577 34.8081C33.4002 35.7761 33.5402 37.992 33.609 38.8985C33.6336 39.2375 33.8841 39.5225 34.2183 39.5913L35.1125 39.7756C35.3164 39.8173 35.5228 39.837 35.7291 39.837C35.8028 39.837 35.8765 39.8345 35.9526 39.8296C36.2253 39.8099 36.6185 39.7657 36.9525 39.6699C37.0017 39.6552 37.0434 39.6208 37.0631 39.5741C37.0853 39.5274 37.0828 39.4734 37.0631 39.4267C36.874 39.0262 36.3703 38.7609 35.8618 38.589C35.8839 38.5938 35.906 38.5963 35.9281 38.6012C36.2991 38.675 36.729 38.6995 37.1295 38.6995C37.3825 38.6995 37.6257 38.6897 37.8345 38.6774C37.9991 38.6676 38.1416 38.5496 38.1686 38.3875C38.1956 38.2254 38.1047 38.0682 37.9524 38.0092C36.8936 37.6014 36.1271 37.1641 35.7954 36.7734C35.2992 36.1913 35.2157 34.1226 35.2279 33C35.2279 32.8059 35.2599 32.6118 35.3213 32.4251C35.5793 31.6266 35.8938 29.509 35.9846 28.8899C36.2622 28.9415 36.4686 29.0864 36.6995 29.2535C37.0066 29.4722 37.353 29.7178 37.9156 29.7645C37.8198 30.0594 37.7338 30.4647 37.7338 30.9707C37.7338 32.1672 38.4044 33.2923 38.434 33.339C38.4659 33.393 38.5224 33.4225 38.5838 33.4225C38.5937 33.4225 38.6034 33.4225 38.6108 33.4225C38.6821 33.4102 38.7386 33.3586 38.7533 33.2874C38.768 33.2186 39.1292 31.6046 39.0825 30.8676C39.058 30.4867 38.9203 30.0544 38.7852 29.7055C39.3306 29.5901 39.7655 29.3346 39.9989 28.9734C40.2863 28.5313 40.2789 27.9687 39.9792 27.298L39.9718 27.3054ZM33.1324 24.8265C33.1471 24.9617 33.1496 25.1091 33.1177 25.2197C33.0906 25.313 33.1446 25.4088 33.2381 25.4358C33.2552 25.4407 33.27 25.4431 33.2872 25.4431C33.3633 25.4431 33.4321 25.394 33.4542 25.3155C33.5255 25.0624 33.4812 24.7381 33.4493 24.5686C33.4395 24.5121 33.3928 24.345 33.3781 24.2787C33.2773 23.812 33.2011 22.8318 33.3019 20.7828C33.3019 20.7631 33.3019 20.746 33.297 20.7263C33.1275 20.1195 33.4297 16.948 33.5598 15.7761C33.5598 15.754 33.5598 15.7319 33.555 15.7122L33.2921 14.7344L34.3509 14.2062L34.4222 14.2627C34.7514 14.5256 34.8324 14.9948 34.6088 15.3535L34.2257 15.9653C34.2183 15.9775 34.2109 15.9923 34.2084 16.0046C34.1986 16.0389 33.9406 16.8767 34.2035 18.3581C34.4491 19.7486 34.1274 20.7485 34.1249 20.7582C34.1151 20.7853 34.1126 20.8172 34.12 20.8467C34.12 20.8566 34.3042 21.8196 34.4222 22.618C34.4713 22.9496 34.5646 23.2714 34.6973 23.5761C34.9553 24.1682 35.1027 25.3769 35.1763 26.1532C34.4099 26.3055 33.8105 26.2293 33.3928 25.9247C32.9972 25.6373 32.8671 25.2147 32.8253 25.0182C32.9432 24.9494 33.0513 24.883 33.1398 24.8191L33.1324 24.8265ZM29.5235 26.6027C29.5235 26.6027 29.5432 26.5978 29.5506 26.5929C29.7962 26.4872 31.4274 25.7847 32.4986 25.2024C32.5722 25.4727 32.7491 25.8977 33.1742 26.2097C33.5156 26.4578 33.9456 26.5831 34.459 26.5831C34.6875 26.5831 34.9356 26.5585 35.1985 26.5069C35.2034 26.5684 35.2083 26.6249 35.2108 26.674C34.9037 26.6666 34.3313 26.7059 33.9652 27.0498C33.722 27.2783 33.6139 27.5928 33.6385 27.9858C33.7098 29.0766 33.776 29.7596 34.1225 30.0421C34.2281 30.1281 34.3534 30.1698 34.4983 30.1698C34.5352 30.1698 34.572 30.1674 34.6088 30.1625C34.9454 30.1134 35.2673 29.8874 35.5056 29.6687C35.4883 29.7793 35.4712 29.8947 35.4515 30.0126C34.8963 30.0937 33.9357 30.5212 33.5918 30.6809L33.3363 30.4254C33.2872 30.3762 33.2134 30.3615 33.1496 30.386C33.1398 30.3885 32.2578 30.7226 31.533 30.0372C31.4619 29.9708 31.3513 29.9733 31.2874 30.0446C31.2457 30.0888 31.2309 30.1502 31.2432 30.2043C30.2384 30.2976 29.4375 30.5679 28.8872 30.7545C28.8234 30.7767 28.762 30.7963 28.7054 30.816C28.5654 30.8626 28.4155 30.8602 28.278 30.8086C26.4748 30.1453 26.2193 28.3421 26.1824 27.8851C27.6957 27.0523 29.499 26.6101 29.526 26.6027H29.5235ZM18.7926 36.2453C18.375 36.513 17.9943 36.8349 17.6626 37.2034L17.6478 37.2181C17.4513 37.4368 17.3506 37.7168 17.3653 38.0117L17.412 38.9501C17.4145 39.0066 17.3972 39.0558 17.3604 39.0901C17.326 39.1245 17.2769 39.1393 17.2229 39.1343C16.8003 39.0975 16.4809 38.81 16.4809 38.6406C16.4809 38.2499 16.9158 37.2722 17.5962 36.631C17.611 36.6187 17.6208 36.604 17.6307 36.5867C18.0679 35.7687 18.999 34.7466 19.7655 34.0539C19.8712 34.3413 20.0874 34.786 20.4829 35.0489C20.1193 35.3535 19.537 35.7662 18.7902 36.2429L18.7926 36.2453ZM33.5181 33.1744C33.3437 32.7568 33.2061 32.3809 33.2036 32.3735C33.1791 32.3072 33.1177 32.2605 33.0464 32.258C31.7198 32.2089 30.2408 31.9362 29.2336 31.7176C28.6956 31.5997 28.1969 31.4375 27.7522 31.2361C27.2363 31.0026 26.2168 30.7447 25.2071 31.6611C23.8657 32.8771 21.4705 34.4617 20.9447 34.6239C20.9079 34.6362 20.8759 34.6582 20.8538 34.6902C20.8292 34.7246 20.7973 34.7639 20.7556 34.8056C20.3281 34.5698 20.1242 34.0293 20.0554 33.8058C20.3748 33.5356 20.6426 33.3463 20.8023 33.2825C21.4631 33.0172 22.232 32.3809 22.264 32.3538C22.2787 32.3416 22.2885 32.3293 22.2984 32.3145C22.3082 32.2998 23.254 30.843 24.561 29.1553C24.8754 28.7475 25.3373 28.3888 25.8508 28.0743C25.9441 28.7573 26.3593 30.4745 28.1526 31.1354C28.2632 31.1771 28.3787 31.1968 28.4966 31.1968C28.6023 31.1968 28.7104 31.1796 28.8111 31.1452C28.8701 31.1255 28.9314 31.1058 28.9953 31.0838C29.6217 30.87 30.4792 30.5802 31.592 30.5286C32.2382 30.9388 32.9014 30.8209 33.1594 30.7472L33.8129 31.4007C33.6114 31.892 33.5279 32.5602 33.5131 33.1744H33.5181ZM35.5228 37.0044C35.992 37.5547 37.0164 38.0288 37.8026 38.3334C37.2867 38.3654 36.5595 38.3777 35.9896 38.2622C35.7561 38.2156 35.0585 38.0976 34.6924 38.2696C34.7416 37.7635 34.8643 36.4787 34.9823 35.2577C35.0731 35.9874 35.2353 36.6678 35.5228 37.0044ZM34.9798 32.3244C34.911 32.5381 34.8643 32.7642 34.8447 32.9951C34.7194 34.3635 34.3264 38.4195 34.3239 38.4612C34.3141 38.557 34.3829 38.6406 34.4787 38.6528C34.9528 38.7044 36.1517 38.9304 36.6062 39.3972C36.363 39.4463 36.1099 39.471 35.9183 39.4856C35.6702 39.5029 35.4196 39.4856 35.1739 39.4365L34.2797 39.2523C34.0979 39.2154 33.9628 39.0606 33.948 38.8764C33.8817 37.9821 33.7441 35.8006 33.9112 34.8744C33.948 34.673 33.9505 34.4593 33.9186 34.2431C33.9087 34.1742 33.8989 34.0981 33.8915 34.0195C33.8915 34.0146 33.8915 34.0073 33.8915 34.0023C33.8202 33.2579 33.8621 32.1082 34.1814 31.4375C34.2133 31.3712 34.1986 31.2901 34.147 31.2385L33.8522 30.9438C34.2723 30.7545 34.9578 30.4696 35.3876 30.3786C35.2624 31.1206 35.1101 31.9166 34.9773 32.3244H34.9798ZM38.7263 30.8946C38.7558 31.3442 38.6108 32.1942 38.5052 32.7322C38.316 32.3145 38.0753 31.6488 38.0753 30.9781C38.0753 30.4499 38.176 30.0471 38.2743 29.7768C38.3234 29.7768 38.3725 29.7719 38.4217 29.7669C38.5567 30.1011 38.7018 30.5334 38.7238 30.897L38.7263 30.8946ZM39.6966 28.7892C39.3896 29.2609 38.6698 29.4304 38.0974 29.4304C37.5249 29.4304 37.2203 29.2093 36.8936 28.9759C36.6013 28.7671 36.3016 28.5534 35.8348 28.5313C35.7463 28.5263 35.6652 28.5927 35.6529 28.6811C35.6529 28.6885 35.6309 28.8334 35.5964 29.0668C35.4221 29.2854 34.9675 29.7596 34.5572 29.8185C34.4345 29.8358 34.3755 29.8014 34.341 29.7719C34.088 29.568 34.034 28.7155 33.9848 27.9638C33.9652 27.6763 34.0364 27.4602 34.201 27.3054C34.5769 26.9516 35.314 27.0278 35.3705 27.0327L36.0952 27.1604C36.1419 27.1678 36.1885 27.1579 36.2278 27.1309C36.2671 27.1039 36.2917 27.0621 36.2991 27.013L36.3727 26.4946C36.3924 26.3497 36.5153 26.2392 36.6627 26.2367C37.3899 26.2146 39.1341 26.2858 39.6524 27.4454C39.9006 27.9981 39.9153 28.4502 39.6966 28.7867V28.7892Z" fill="var(--fill-0, #FFFFFA)"/>
<path id="Vector_3" d="M25.6281 18.3382C25.0213 16.9846 23.1051 16.8962 22.3091 16.9232C21.9922 16.933 21.7293 17.1689 21.6851 17.4809L21.6359 17.8199L21.2208 17.7462C21.1864 17.2131 21.0366 15.3165 20.668 14.4738C20.5476 14.1963 20.4617 13.9039 20.4174 13.6017C20.3118 12.8918 20.157 12.0565 20.1201 11.86C20.184 11.6413 20.4322 10.6636 20.1988 9.33443C19.9752 8.06435 20.1546 7.29295 20.189 7.16521L20.5575 6.57315C20.6607 6.40854 20.7172 6.2292 20.7318 6.04741C20.7417 5.91474 20.7688 5.78454 20.8253 5.66171C20.894 5.50939 20.9922 5.35709 21.1004 5.33251C21.1519 5.32023 21.2011 5.28829 21.2183 5.23916C21.2724 5.08193 21.1422 4.964 21.0144 4.99594C20.8228 5.04262 20.6827 5.19985 20.5845 5.36691C20.5133 5.23915 20.415 5.1237 20.2946 5.02542L20.2184 4.96401L20.4126 3.95922C20.4297 3.87569 20.3879 3.78971 20.3069 3.75777C20.2013 3.71601 20.0907 3.78234 20.0686 3.88552L19.8696 4.91488L19.7443 4.97875L19.587 3.74058C19.5748 3.64476 19.4863 3.57597 19.393 3.58826C19.2972 3.60054 19.2284 3.68652 19.2407 3.78234L19.4127 5.14335L19.307 5.19739L18.7739 3.94203C18.742 3.86341 18.6584 3.81427 18.5749 3.83393C18.4643 3.8585 18.4078 3.97396 18.4496 4.07223L18.995 5.35217L18.7887 5.45535L18.1057 4.58076C18.0393 4.49478 17.9092 4.48986 17.8354 4.57585C17.7789 4.63973 17.7814 4.73553 17.8354 4.80186L18.5823 5.75506L18.8648 6.80407C18.8181 7.22662 18.4128 10.9927 18.6093 11.8231C18.5209 13.6239 18.5552 14.8522 18.7174 15.4811C18.1867 15.9209 15.961 16.9232 15.0864 17.2991C14.7916 17.3704 11.2686 18.267 9.94698 19.972C8.71864 21.5565 7.80721 22.9397 7.68191 23.1337C7.55908 23.2345 6.88841 23.7676 6.33319 23.9886C5.65514 24.2589 3.72664 26.0916 2.99946 27.4305C2.28947 28.111 1.79567 29.1551 1.79567 29.6734C1.79567 30.0739 2.29193 30.467 2.85697 30.5161C3.00929 30.5284 3.15914 30.4768 3.26723 30.3737C3.37532 30.2705 3.43183 30.1206 3.42447 29.9634L3.37779 29.0249C3.36796 28.8259 3.43674 28.6318 3.56941 28.4844L3.58415 28.4696C3.8937 28.1258 4.24991 27.8236 4.64298 27.573C5.43404 27.0669 6.429 26.3888 6.76312 25.9712C7.42642 25.7206 9.72102 24.2048 11.1017 22.9519C11.9222 22.21 12.7329 22.3427 13.2685 22.5858C13.7352 22.7971 14.2585 22.9667 14.8211 23.0895C15.8111 23.3057 17.2556 23.571 18.5774 23.6324C18.6806 23.9076 18.9582 24.6299 19.2112 25.1089C19.2186 25.185 19.2284 25.2563 19.2382 25.3251C19.2653 25.5044 19.2628 25.6764 19.2333 25.841C19.0565 26.8089 19.1965 29.0249 19.2653 29.9314C19.2898 30.2705 19.5404 30.5554 19.8745 30.6242L20.7688 30.8084C20.9727 30.8502 21.179 30.8699 21.3854 30.8699C21.459 30.8699 21.5328 30.8674 21.609 30.8625C21.8816 30.8429 22.2747 30.7986 22.6088 30.7028C22.6579 30.6881 22.6997 30.6536 22.7193 30.607C22.7415 30.5603 22.739 30.5063 22.7193 30.4596C22.5302 30.0592 22.0266 29.7939 21.518 29.6219C21.5401 29.6268 21.5622 29.6292 21.5844 29.6342C21.9553 29.7078 22.3853 29.7324 22.7857 29.7324C23.0387 29.7324 23.2819 29.7226 23.4907 29.7103C23.6553 29.7005 23.7978 29.5826 23.8249 29.4204C23.8519 29.2583 23.761 29.101 23.6087 29.0421C22.5498 28.6343 21.7833 28.197 21.4517 27.8064C20.9554 27.2241 20.8719 25.1556 20.8842 24.0329C20.8842 23.8388 20.9161 23.6447 20.9776 23.4581C21.2355 22.6596 21.55 20.5419 21.6409 19.9229C21.9185 19.9745 22.1249 20.1194 22.3557 20.2865C22.6628 20.505 23.0093 20.7508 23.5718 20.7974C23.4761 21.0922 23.39 21.4975 23.39 22.0037C23.39 23.2001 24.0607 24.3252 24.0902 24.3719C24.1221 24.426 24.1786 24.4554 24.2401 24.4554C24.2499 24.4554 24.2597 24.4554 24.267 24.4554C24.3383 24.4432 24.3948 24.3916 24.4096 24.3203C24.4243 24.2515 24.7854 22.6374 24.7387 21.9005C24.7142 21.5197 24.5766 21.0873 24.4415 20.7385C24.9869 20.623 25.4217 20.3675 25.6551 20.0064C25.9425 19.5642 25.9351 19.0015 25.6354 18.3309L25.6281 18.3382ZM18.7887 15.8595C18.8034 15.9946 18.8058 16.1419 18.7739 16.2525C18.7469 16.3458 18.801 16.4417 18.8943 16.4687C18.9114 16.4736 18.9262 16.4761 18.9434 16.4761C19.0195 16.4761 19.0884 16.427 19.1105 16.3483C19.1817 16.0953 19.1375 15.771 19.1056 15.6015C19.0957 15.545 19.0491 15.3779 19.0343 15.3116C18.9336 14.8448 18.8574 13.8646 18.9582 11.8158C18.9582 11.7961 18.9582 11.7789 18.9533 11.7593C18.7837 11.1524 19.0859 7.98083 19.2161 6.80898C19.2161 6.78688 19.2162 6.76477 19.2112 6.74512L18.9484 5.76735L20.0071 5.23916L20.0784 5.29566C20.4076 5.55853 20.4887 6.02776 20.2651 6.38643L19.8819 6.99815C19.8745 7.01044 19.8671 7.02517 19.8647 7.03746C19.8548 7.07185 19.5969 7.90959 19.8597 9.39102C20.1054 10.7814 19.7836 11.7813 19.7812 11.7912C19.7713 11.8182 19.7689 11.8501 19.7763 11.8796C19.7763 11.8894 19.9605 12.8525 20.0784 13.6509C20.1275 13.9825 20.2209 14.3044 20.3536 14.609C20.6115 15.201 20.7589 16.4097 20.8326 17.186C20.0661 17.3384 19.4667 17.2622 19.0491 16.9576C18.6535 16.6701 18.5233 16.2476 18.4816 16.0511C18.5994 15.9822 18.7075 15.916 18.796 15.8521L18.7887 15.8595ZM15.1797 17.6357C15.1797 17.6357 15.1994 17.6308 15.2068 17.6258C15.4524 17.5202 17.0837 16.8175 18.1548 16.2354C18.2286 16.5055 18.4054 16.9306 18.8304 17.2426C19.1718 17.4907 19.6018 17.616 20.1152 17.616C20.3437 17.616 20.5918 17.5914 20.8547 17.5398C20.8596 17.6012 20.8646 17.6577 20.867 17.7069C20.5599 17.6995 19.9875 17.7389 19.6215 18.0828C19.3782 18.3113 19.2702 18.6257 19.2947 19.0188C19.366 20.1095 19.4323 20.7925 19.7787 21.075C19.8844 21.161 20.0096 21.2028 20.1546 21.2028C20.1914 21.2028 20.2282 21.2003 20.2651 21.1954C20.6017 21.1463 20.9235 20.9202 21.1618 20.7016C21.1446 20.8122 21.1274 20.9276 21.1077 21.0455C20.5526 21.1266 19.5919 21.5541 19.248 21.7137L18.9926 21.4583C18.9434 21.4091 18.8697 21.3944 18.8058 21.419C18.796 21.4214 17.9141 21.7555 17.1894 21.0702C17.1181 21.0038 17.0075 21.0063 16.9436 21.0774C16.9019 21.1217 16.8871 21.1831 16.8994 21.2371C15.8946 21.3306 15.0938 21.6007 14.5434 21.7875C14.4796 21.8095 14.4182 21.8292 14.3617 21.8489C14.2217 21.8956 14.0718 21.8931 13.9342 21.8415C12.131 21.1782 11.8755 19.375 11.8386 18.918C13.3519 18.0852 15.1552 17.643 15.1822 17.6357H15.1797ZM4.4489 27.2782C4.03126 27.546 3.65048 27.8678 3.31883 28.2363L3.30409 28.251C3.10756 28.4696 3.00682 28.7498 3.02156 29.0445L3.06824 29.983C3.0707 30.0395 3.0535 30.0886 3.01665 30.123C2.98226 30.1574 2.93312 30.1722 2.87908 30.1673C2.45653 30.1304 2.13715 29.843 2.13715 29.6734C2.13715 29.2829 2.57199 28.305 3.25249 27.6639C3.26723 27.6516 3.27706 27.6368 3.28689 27.6197C3.72418 26.8015 4.65527 25.7796 5.42176 25.0868C5.52739 25.3743 5.74358 25.8189 6.13911 26.0817C5.77552 26.3864 5.19329 26.7991 4.44645 27.2757L4.4489 27.2782ZM19.1743 24.2073C18.9999 23.7896 18.8623 23.4138 18.8598 23.4065C18.8353 23.3401 18.7739 23.2934 18.7026 23.291C17.376 23.2418 15.8971 22.9691 14.8899 22.7505C14.3518 22.6326 13.8532 22.4705 13.4084 22.269C12.8925 22.0356 11.8731 21.7776 10.8633 22.6939C9.522 23.91 7.1267 25.4946 6.60097 25.6567C6.56412 25.669 6.53218 25.6912 6.51007 25.7231C6.48551 25.7574 6.45357 25.7968 6.4118 25.8386C5.98434 25.6027 5.78044 25.0623 5.71165 24.8387C6.03102 24.5684 6.2988 24.3793 6.45848 24.3154C7.11933 24.0501 7.88827 23.4138 7.92021 23.3868C7.93495 23.3745 7.94478 23.3622 7.95462 23.3475C7.96444 23.3327 8.91027 21.8759 10.2173 20.1882C10.5317 19.7803 10.9936 19.4216 11.507 19.1072C11.6003 19.7901 12.0155 21.5074 13.809 22.1682C13.9194 22.2101 14.0349 22.2296 14.1529 22.2296C14.2585 22.2296 14.3666 22.2125 14.4673 22.178C14.5263 22.1585 14.5877 22.1388 14.6515 22.1166C15.278 21.903 16.1354 21.613 17.2482 21.5614C17.8944 21.9717 18.5577 21.8538 18.8156 21.7801L19.4692 22.4335C19.2677 22.9249 19.1841 23.5931 19.1694 24.2073H19.1743ZM21.179 28.0373C21.6483 28.5876 22.6727 29.0618 23.4588 29.3664C22.9429 29.3983 22.2157 29.4106 21.6458 29.2951C21.4124 29.2484 20.7147 29.1306 20.3487 29.3025C20.3978 28.7964 20.5206 27.5116 20.6385 26.2906C20.7294 27.0202 20.8915 27.7007 21.179 28.0373ZM20.636 23.3573C20.5673 23.571 20.5206 23.797 20.501 24.028C20.3756 25.3963 19.9826 29.4523 19.9801 29.4942C19.9703 29.59 20.0391 29.6734 20.1349 29.6857C20.6091 29.7373 21.8079 29.9634 22.2624 30.4302C22.0192 30.4793 21.7662 30.5038 21.5745 30.5186C21.3264 30.5358 21.0758 30.5186 20.8302 30.4694L19.9359 30.2851C19.7541 30.2483 19.619 30.0935 19.6042 29.9093C19.5379 29.0151 19.4004 26.8335 19.5674 25.9074C19.6042 25.7059 19.6067 25.4922 19.5748 25.276C19.565 25.2072 19.5551 25.131 19.5477 25.0524C19.5477 25.0475 19.5477 25.0401 19.5477 25.0352C19.4766 24.2909 19.5183 23.1411 19.8377 22.4705C19.8696 22.4041 19.8548 22.323 19.8032 22.2714L19.5085 21.9766C19.9286 21.7875 20.614 21.5025 21.0438 21.4116C20.9186 22.1535 20.7663 22.9494 20.6336 23.3573H20.636ZM24.3825 21.9275C24.4121 22.377 24.267 23.2271 24.1614 23.7651C23.9723 23.3475 23.7315 22.6817 23.7315 22.011C23.7315 21.4829 23.8323 21.0799 23.9305 20.8097C23.9796 20.8097 24.0288 20.8048 24.0779 20.7999C24.213 21.1339 24.358 21.5664 24.3801 21.93L24.3825 21.9275ZM25.353 19.8221C25.0458 20.2938 24.326 20.4633 23.7536 20.4633C23.1812 20.4633 22.8766 20.2422 22.5498 20.0088C22.2575 19.8 21.9578 19.5863 21.491 19.5642C21.4026 19.5593 21.3215 19.6255 21.3092 19.714C21.3092 19.7214 21.2871 19.8664 21.2527 20.0997C21.0783 20.3184 20.6238 20.7925 20.2135 20.8515C20.0907 20.8686 20.0317 20.8343 19.9974 20.8048C19.7443 20.6009 19.6902 19.7484 19.6411 18.9966C19.6215 18.7092 19.6927 18.493 19.8573 18.3382C20.2332 17.9845 20.9702 18.0606 21.0267 18.0655L21.7514 18.1933C21.7981 18.2007 21.8448 18.1909 21.884 18.1638C21.9234 18.1368 21.9479 18.0951 21.9553 18.0459L22.029 17.5276C22.0487 17.3826 22.1715 17.2721 22.3189 17.2696C23.0461 17.2475 24.7903 17.3188 25.3087 18.4782C25.5569 19.0311 25.5715 19.4831 25.353 19.8197V19.8221Z" fill="var(--fill-0, #FFFFFA)"/>
</g>
<defs>
<clipPath id="clip0_0_4">
<rect width="48" height="48" fill="white"/>
</clipPath>
</defs>
</svg>
