<svg preserveAspectRatio="none" width="100%" height="100%" overflow="visible" style="display: block;" viewBox="0 0 48 48" fill="none" xmlns="http://www.w3.org/2000/svg">
<g id="Groups_2.svg" clip-path="url(#clip0_0_8)">
<path id="Vector" d="M47.5253 23.7626C47.5253 10.6389 36.8864 0 23.7626 0C10.6389 0 0 10.6389 0 23.7626C0 36.8864 10.6389 47.5253 23.7626 47.5253C36.8864 47.5253 47.5253 36.8864 47.5253 23.7626Z" fill="var(--fill-0, #869274)"/>
<path id="Vector_2" d="M38.4364 35.6877L36.2504 34.8531C36.4067 34.151 37.0029 31.382 36.9525 30.4123C36.9446 30.2825 36.9525 30.1527 36.9711 30.0334C37.048 29.5618 37.1513 28.8013 37.252 28.0488C37.4613 27.9693 37.8163 27.813 38.1158 27.5799C38.7278 27.1002 38.7251 26.6047 38.6139 26.2735C38.28 25.2693 36.8334 23.1549 36.5683 22.7734L36.7035 21.1915C36.7194 20.9929 36.8704 20.8338 37.0665 20.8048C37.4374 20.7518 37.7342 20.6192 37.9435 20.41C38.0813 20.2722 38.1317 20.0496 38.0946 19.7528C37.9753 18.8149 37.048 17.3417 35.8582 16.6422C35.4449 16.3984 34.9547 16.3162 34.446 16.4037C33.9929 16.4805 33.5346 16.6951 33.1583 17.0052C32.5806 17.4795 32.2733 18.0915 32.2891 18.6877C32.1487 18.6108 31.958 18.5234 31.7514 18.481C31.6851 18.4677 31.6162 18.4598 31.5473 18.4598C31.1922 18.4598 30.869 18.6453 30.6809 18.9553C29.8966 20.259 31.7884 22.8078 31.8679 22.9165C31.905 22.9642 31.9606 22.9907 32.019 22.9907H32.0215C32.1249 22.9907 32.2097 22.9059 32.2097 22.8026C32.2097 22.7867 32.2098 22.7734 32.2044 22.7601C32.1779 22.5296 31.9474 20.5318 31.9474 19.7502C31.9474 19.2441 32.2123 19.1672 32.3687 19.1672C32.3687 19.1672 32.3713 19.1672 32.374 19.1672C32.374 19.1726 32.374 19.1752 32.3793 19.1805C32.888 20.6192 33.5955 21.0485 34.2393 21.2976V21.4194C33.8525 21.687 32.4985 22.8714 32.2998 26.4776C32.2759 26.9015 32.1302 27.3042 31.8785 27.6408C31.4916 28.1549 31.0571 28.3721 30.4185 28.3721C29.2898 28.3721 27.8007 28.8728 27.0932 29.8294C25.9724 30.2454 24.1336 30.8151 23.3864 31.0429C23.2036 31.0986 23.0129 31.1224 22.8247 31.1144C21.9741 31.0747 19.0119 31.0429 16.606 32.3598C16.545 32.3943 16.4921 32.4181 16.4391 32.4366C16.0814 32.5612 15.7713 32.5399 15.517 32.3757C15.2123 32.1743 14.8096 32.1664 14.4863 32.3545L11.4418 34.1191C11.2432 34.2357 11.1504 34.453 11.2034 34.6756C11.2564 34.8981 11.4392 35.0518 11.6697 35.0624C12.0725 35.0836 12.56 35.1021 13.09 35.1021C13.7841 35.1021 14.5525 35.073 15.3024 34.983C17.2737 34.7471 21.9822 34.5775 22.9042 34.5457C23.0287 34.5404 23.1533 34.5458 23.2751 34.5642C24.0991 34.6703 28.3783 35.1021 31.7619 33.0884C32.1911 32.834 32.6045 32.5638 33.0046 32.2777L33.1133 32.9003C33.1609 33.1758 33.402 33.3799 33.6829 33.3852L34.695 33.4011C34.6235 34.1615 34.6235 34.9087 34.7693 35.5075C34.8329 35.7646 35.0104 35.9792 35.2488 36.0852C35.9404 36.3872 36.7273 36.48 37.4242 36.48C37.7527 36.48 38.0627 36.4588 38.3357 36.4323C38.5158 36.4137 38.651 36.2813 38.6748 36.1011C38.6986 35.9209 38.6006 35.7566 38.431 35.693L38.4364 35.6877ZM31.5712 19.7476C31.5712 20.2828 31.6718 21.3346 31.7487 22.058C31.2081 21.1757 30.5828 19.8456 31.0041 19.1461C31.1234 18.95 31.3247 18.8308 31.5473 18.8308C31.5897 18.8308 31.6321 18.836 31.6745 18.844C31.7593 18.8625 31.844 18.889 31.9209 18.9209C31.6692 19.1036 31.5712 19.4429 31.5712 19.7449V19.7476ZM37.3102 27.617C37.395 26.9757 37.4693 26.3769 37.5143 26.0245C37.5434 25.7887 37.5434 25.5502 37.5143 25.317C37.4931 25.166 37.4666 24.9832 37.4322 24.7871C37.7925 25.3833 38.1263 25.9927 38.2614 26.3928C38.4629 26.997 37.758 27.4208 37.3156 27.6196L37.3102 27.617ZM32.1806 27.8634C32.4774 27.4659 32.6495 26.9943 32.6787 26.4962C32.8933 22.6118 34.5017 21.6977 34.5175 21.6897C34.5785 21.6579 34.6182 21.5917 34.6182 21.5228V21.1677C34.6182 21.0882 34.5678 21.0167 34.4937 20.9902C34.0035 20.8153 33.2643 20.5504 32.737 19.056C32.4906 18.3618 32.9198 17.6887 33.3994 17.2939C33.9849 16.8117 34.915 16.5229 35.6701 16.9654C36.8492 17.6597 37.6335 19.0825 37.7236 19.8006C37.7475 19.9966 37.7183 20.1078 37.6785 20.145C37.4904 20.3331 37.2149 20.4073 37.0161 20.4338C36.6452 20.4868 36.3643 20.7835 36.3299 21.1598L36.2186 22.4634C35.8794 22.2117 35.4714 21.9626 35.225 21.9388C34.87 21.9043 34.5307 22.111 34.1863 22.5694C33.7173 23.1974 33.5584 24.183 33.7836 25.0839C33.9611 25.7887 34.3374 26.3213 34.854 26.5968L35.4529 29.6307C34.3745 30.7992 33.1106 31.8272 31.693 32.6857C30.7047 31.6285 30.612 29.3842 30.6041 28.7404C31.2665 28.698 31.7566 28.4225 32.1752 27.8634H32.1806ZM34.8355 32.3572L34.4062 32.2352L34.1943 31.353C34.5678 31.0376 34.9282 30.7064 35.27 30.3619C35.1376 30.8681 34.9653 31.5834 34.8355 32.3545V32.3572ZM15.3103 32.683C15.5541 32.8446 15.9701 32.9931 16.5636 32.7864C16.6351 32.7625 16.7094 32.7281 16.7862 32.6857C18.3522 31.8298 20.1671 31.5649 21.4389 31.496L21.2826 32.0471C19.9022 32.071 17.9706 32.2565 16.4046 32.9904C15.9648 33.1971 15.4561 33.1653 15.0427 32.9082C14.9712 32.8632 14.9022 32.8156 14.8334 32.7625C14.7857 32.7255 14.7354 32.6936 14.685 32.6698C14.8837 32.5612 15.1275 32.5664 15.3077 32.6857L15.3103 32.683ZM15.2574 34.604C13.9616 34.7604 12.6024 34.7312 11.6883 34.6835C11.6009 34.6782 11.5744 34.612 11.569 34.5828C11.5638 34.5617 11.5531 34.4848 11.63 34.4397C11.63 34.4397 14.0862 33.0142 14.0915 33.0116C14.2531 32.9241 14.4519 32.9401 14.6029 33.0567C14.6824 33.1176 14.7618 33.1758 14.844 33.2262C15.366 33.5521 16.0098 33.5892 16.5636 33.3295C17.8487 32.7255 19.4013 32.5055 20.6652 32.4419L20.3658 34.2649C18.6171 34.3444 16.447 34.461 15.2574 34.604ZM23.3255 34.1854C23.1824 34.1669 23.0367 34.1589 22.8909 34.1642C22.5597 34.1748 21.749 34.204 20.75 34.2463L21.0495 32.4234C21.8258 32.3995 22.4564 32.4313 22.785 32.4552C23.0287 32.4738 23.2698 32.4473 23.503 32.3783C24.5337 32.0736 27.0217 31.3344 27.814 31.0482C27.8722 31.027 27.9173 30.9767 27.9331 30.9158C28.1663 29.9831 28.9957 29.8161 29.0328 29.8082C29.1335 29.7896 29.2024 29.6916 29.1838 29.5883C29.1653 29.4849 29.0672 29.4187 28.9639 29.4372C28.9215 29.4452 27.9226 29.6386 27.594 30.725C26.6932 31.0403 24.1707 31.7874 23.397 32.0154C23.2089 32.071 23.0102 32.0922 22.8141 32.079C22.573 32.0631 22.1755 32.0418 21.6774 32.0392L21.8364 31.4748C22.263 31.4642 22.6021 31.4748 22.8088 31.4827C23.0419 31.4934 23.2725 31.4642 23.5003 31.3953C24.2634 31.1622 26.158 30.5766 27.284 30.1553C27.3185 30.1421 27.3503 30.1182 27.3714 30.0864C27.9464 29.265 29.2315 28.8013 30.2331 28.7457C30.2331 29.0398 30.2543 29.6253 30.3576 30.2958C30.5351 31.4483 30.8742 32.3121 31.3671 32.8738C28.1239 34.6889 24.1124 34.2834 23.3281 34.1827L23.3255 34.1854ZM33.6908 33.0037C33.5901 33.0037 33.5054 32.9295 33.4868 32.8288L33.3464 32.0233C33.5239 31.8908 33.6988 31.7557 33.871 31.6179L34.0671 32.4287C34.083 32.4949 34.1334 32.5479 34.1995 32.5664L34.7799 32.7307C34.7666 32.8261 34.7534 32.9241 34.7401 33.0196L33.6935 33.0037H33.6908ZM38.3012 36.0508C37.501 36.1355 36.3485 36.1488 35.4052 35.7354C35.2753 35.6771 35.1747 35.5579 35.1402 35.4149C34.6765 33.5018 35.8265 29.779 35.8397 29.7419C35.8503 29.7128 35.8503 29.681 35.845 29.6492L34.9706 25.227C34.952 25.1369 34.8752 25.0759 34.7851 25.0759C34.7693 25.0759 34.7534 25.0759 34.7374 25.0812C34.6394 25.1078 34.5838 25.2111 34.6024 25.3091L34.7507 26.0643C34.4725 25.8152 34.2658 25.4469 34.1519 24.9912C33.9558 24.2095 34.0909 23.3245 34.491 22.7946C34.7454 22.4528 34.9812 22.2912 35.1906 22.3123C35.2938 22.323 35.4846 22.4237 35.6886 22.5561C36.0225 22.7707 36.306 23.049 36.526 23.3776C36.526 23.3802 36.5683 23.4438 36.5869 23.4702C36.7458 23.7246 36.8651 24.0055 36.9393 24.297C37.032 24.6653 37.093 25.0336 37.13 25.3038C37.1646 25.5502 37.1671 25.7993 37.1354 26.0457C37.0267 26.8936 36.7538 29.0159 36.6002 29.9725C36.5763 30.1182 36.5683 30.2745 36.5763 30.4309C36.6293 31.4695 35.8556 34.8929 35.8477 34.9273C35.8265 35.0174 35.8768 35.1127 35.9642 35.1446L38.3065 36.0402C38.3065 36.0402 38.3065 36.0481 38.3012 36.0508Z" fill="var(--fill-0, white)"/>
<path id="Vector_3" d="M33.4531 30.8033L31.2672 29.9686C31.4236 29.2665 32.0197 26.4976 31.9694 25.5279C31.9614 25.398 31.9694 25.2682 31.9879 25.149C32.0647 24.6774 32.1681 23.9168 32.2688 23.1643C32.4781 23.0849 32.8332 22.9286 33.1326 22.6954C33.7446 22.2158 33.742 21.7203 33.6306 21.3891C33.2969 20.3849 31.8501 18.2705 31.5852 17.889L31.7203 16.3071C31.7362 16.1084 31.8872 15.9494 32.0833 15.9203C32.4543 15.8672 32.751 15.7348 32.9603 15.5255C33.0981 15.3877 33.1484 15.1651 33.1113 14.8684C32.9922 13.9304 32.0647 12.4572 30.8751 11.7577C30.4617 11.5139 29.9716 11.4318 29.4629 11.5193C29.0097 11.5961 28.5513 11.8107 28.1751 12.1207C27.5975 12.595 27.2901 13.207 27.306 13.8032C27.1656 13.7263 26.9748 13.6389 26.7681 13.5966C26.7019 13.5833 26.633 13.5753 26.5641 13.5753C26.2091 13.5753 25.8858 13.7609 25.6977 14.0708C24.9134 15.3745 26.8052 17.9234 26.8847 18.032C26.9218 18.0798 26.9775 18.1062 27.0357 18.1062H27.0384C27.1418 18.1062 27.2265 18.0214 27.2265 17.9181C27.2265 17.9022 27.2265 17.889 27.2213 17.8757C27.1948 17.6452 26.9642 15.6474 26.9642 14.8657C26.9642 14.3597 27.2292 14.2828 27.3855 14.2828C27.3855 14.2828 27.3882 14.2828 27.3908 14.2828C27.3908 14.2881 27.3908 14.2907 27.3961 14.2961C27.9048 15.7348 28.6122 16.164 29.2562 16.4131V16.535C28.8693 16.8026 27.5154 17.987 27.3166 21.5932C27.2928 22.017 27.147 22.4198 26.8953 22.7563C26.5085 23.2704 26.074 23.4876 25.4354 23.4876C24.3066 23.4876 22.8175 23.9884 22.1101 24.945C20.9893 25.3609 19.1504 25.9306 18.4032 26.1584C18.2204 26.2141 18.0296 26.2379 17.8415 26.23C16.991 26.1903 14.0286 26.1584 11.6228 27.4753C11.5619 27.5097 11.5089 27.5336 11.4559 27.5522C11.0982 27.6767 10.7882 27.6555 10.5338 27.4913C10.2291 27.2898 9.82634 27.2819 9.50308 27.47L6.45869 29.2347C6.25997 29.3513 6.16723 29.5686 6.22023 29.7911C6.27322 30.0137 6.45605 30.1674 6.68657 30.178C7.08931 30.1991 7.57685 30.2177 8.10677 30.2177C8.80098 30.2177 9.56935 30.1886 10.3192 30.0985C12.2905 29.8626 16.9989 29.6931 17.921 29.6612C18.0455 29.656 18.1701 29.6612 18.292 29.6798C19.116 29.7858 23.3951 30.2177 26.7787 28.204C27.208 27.9496 27.6213 27.6794 28.0214 27.3932L28.13 28.0158C28.1778 28.2914 28.4189 28.4955 28.6998 28.5007L29.7119 28.5166C29.6404 29.277 29.6404 30.0243 29.7861 30.6231C29.8496 30.8801 30.0272 31.0948 30.2657 31.2007C30.9572 31.5028 31.7442 31.5955 32.441 31.5955C32.7696 31.5955 33.0796 31.5743 33.3525 31.5478C33.5326 31.5293 33.6678 31.3968 33.6917 31.2166C33.7155 31.0364 33.6174 30.8721 33.4479 30.8085L33.4531 30.8033ZM26.5879 14.8631C26.5879 15.3983 26.6886 16.4502 26.7654 17.1736C26.225 16.2912 25.5997 14.9611 26.021 14.2616C26.1402 14.0656 26.3416 13.9463 26.5641 13.9463C26.6065 13.9463 26.649 13.9516 26.6913 13.9595C26.7761 13.9781 26.8609 14.0046 26.9377 14.0364C26.686 14.2192 26.5879 14.5584 26.5879 14.8604V14.8631ZM32.3271 22.7325C32.4118 22.0913 32.486 21.4925 32.5311 21.14C32.5602 20.9042 32.5602 20.6658 32.5311 20.4326C32.5099 20.2816 32.4834 20.0987 32.4489 19.9026C32.8093 20.4989 33.1432 21.1083 33.2783 21.5083C33.4796 22.1125 32.7749 22.5364 32.3323 22.7351L32.3271 22.7325ZM27.1974 22.9789C27.4941 22.5814 27.6664 22.1098 27.6955 21.6117C27.9102 17.7273 29.5184 16.8132 29.5344 16.8053C29.5953 16.7734 29.635 16.7072 29.635 16.6383V16.2833C29.635 16.2038 29.5847 16.1322 29.5105 16.1058C29.0203 15.9308 28.281 15.6659 27.7538 14.1715C27.5074 13.4773 27.9366 12.8043 28.4162 12.4095C29.0018 11.9273 29.9318 11.6384 30.687 12.081C31.866 12.7751 32.6503 14.198 32.7404 14.9161C32.7642 15.1122 32.7351 15.2234 32.6954 15.2605C32.5073 15.4486 32.2317 15.5228 32.033 15.5493C31.662 15.6023 31.3811 15.8991 31.3467 16.2753L31.2354 17.579C30.8963 17.3273 30.4882 17.0781 30.2418 17.0543C29.8867 17.0199 29.5476 17.2266 29.2032 17.685C28.7342 18.3129 28.5752 19.2986 28.8004 20.1994C28.978 20.9042 29.3542 21.4368 29.8709 21.7123L30.4697 24.7462C29.3912 25.9146 28.1274 26.9428 26.7099 27.8012C25.7215 26.744 25.6288 24.4998 25.6208 23.8559C26.2832 23.8135 26.7735 23.538 27.1921 22.9789H27.1974ZM29.8523 27.4727L29.4231 27.3508L29.2111 26.4685C29.5847 26.1532 29.9451 25.822 30.2869 25.4775C30.1543 25.9836 29.9822 26.699 29.8523 27.47V27.4727ZM10.3272 27.7986C10.5709 27.9602 10.9869 28.1086 11.5805 27.9019C11.652 27.878 11.7262 27.8436 11.803 27.8012C13.3689 26.9454 15.184 26.6804 16.4558 26.6116L16.2994 27.1626C14.919 27.1866 12.9874 27.372 11.4215 28.1059C10.9817 28.3126 10.4729 28.2809 10.0595 28.0238C9.98797 27.9787 9.91911 27.9311 9.85025 27.878C9.80252 27.841 9.75222 27.8092 9.70182 27.7854C9.90055 27.6767 10.1443 27.682 10.3245 27.8012L10.3272 27.7986ZM10.2741 29.7196C8.97849 29.8759 7.61923 29.8468 6.7051 29.799C6.61767 29.7938 6.59118 29.7275 6.58588 29.6983C6.58058 29.6772 6.56998 29.6003 6.64682 29.5553C6.64682 29.5553 9.10302 28.1298 9.10832 28.1272C9.26991 28.0397 9.46865 28.0556 9.61966 28.1722C9.69923 28.2331 9.77871 28.2914 9.86086 28.3418C10.3828 28.6676 11.0267 28.7047 11.5805 28.4451C12.8655 27.841 14.4182 27.621 15.6821 27.5574L15.3826 29.3804C13.6339 29.4599 11.4639 29.5765 10.2741 29.7196ZM18.3423 29.301C18.1992 29.2824 18.0535 29.2745 17.9078 29.2797C17.5766 29.2903 16.7658 29.3195 15.7669 29.3619L16.0662 27.5389C16.8426 27.5151 17.4732 27.5468 17.8018 27.5707C18.0455 27.5893 18.2866 27.5628 18.5198 27.4938C19.5505 27.1891 22.0386 26.4499 22.8308 26.1638C22.8891 26.1426 22.9341 26.0922 22.95 26.0312C23.1832 25.0986 24.0126 24.9317 24.0496 24.9237C24.1503 24.9052 24.2192 24.8071 24.2007 24.7038C24.1821 24.6005 24.0841 24.5343 23.9807 24.5527C23.9383 24.5608 22.9394 24.7542 22.6109 25.8405C21.71 26.1558 19.1875 26.903 18.4138 27.1309C18.2257 27.1866 18.027 27.2077 17.8309 27.1945C17.5898 27.1785 17.1924 27.1574 16.6942 27.1547L16.8532 26.5903C17.2798 26.5797 17.619 26.5903 17.8256 26.5983C18.0588 26.6089 18.2893 26.5797 18.5172 26.5109C19.2803 26.2777 21.1747 25.6921 22.3009 25.2708C22.3353 25.2576 22.3671 25.2337 22.3883 25.2019C22.9633 24.3806 24.2483 23.9168 25.2499 23.8613C25.2499 24.1554 25.2711 24.7409 25.3745 25.4113C25.552 26.5638 25.8911 27.4277 26.3839 27.9894C23.1408 29.8043 19.1293 29.399 18.345 29.2983L18.3423 29.301ZM28.7077 28.1192C28.607 28.1192 28.5222 28.045 28.5037 27.9443L28.3632 27.1388C28.5407 27.0064 28.7156 26.8712 28.8879 26.7334L29.0839 27.5442C29.0998 27.6104 29.1501 27.6634 29.2164 27.682L29.7966 27.8463C29.7834 27.9416 29.7702 28.0397 29.757 28.1351L28.7104 28.1192H28.7077ZM33.318 31.1663C32.5179 31.251 31.3652 31.2643 30.4219 30.851C30.2922 30.7926 30.1914 30.6735 30.157 30.5303C29.6934 28.6173 30.8433 24.8946 30.8565 24.8574C30.8671 24.8284 30.8671 24.7965 30.8618 24.7648L29.9874 20.3425C29.9689 20.2524 29.8921 20.1915 29.802 20.1915C29.7861 20.1915 29.7702 20.1915 29.7543 20.1967C29.6562 20.2232 29.6006 20.3266 29.6191 20.4246L29.7676 21.1798C29.4894 20.9308 29.2827 20.5625 29.1687 20.1067C28.9726 19.3251 29.1078 18.44 29.5078 17.9102C29.7622 17.5684 29.9981 17.4067 30.2073 17.4279C30.3107 17.4385 30.5015 17.5392 30.7055 17.6717C31.0394 17.8863 31.3229 18.1645 31.5428 18.4931C31.5428 18.4957 31.5852 18.5593 31.6038 18.5858C31.7627 18.8402 31.882 19.121 31.9561 19.4125C32.0489 19.7808 32.1098 20.1491 32.1469 20.4194C32.1813 20.6658 32.184 20.9148 32.1522 21.1613C32.0436 22.0091 31.7706 24.1314 31.617 25.088C31.5931 25.2337 31.5852 25.3901 31.5931 25.5464C31.6461 26.5851 30.8724 30.0084 30.8645 30.0428C30.8433 30.1329 30.8936 30.2283 30.981 30.2601L33.3234 31.1557C33.3234 31.1557 33.3234 31.1636 33.318 31.1663Z" fill="var(--fill-0, white)"/>
</g>
<defs>
<clipPath id="clip0_0_8">
<rect width="48" height="48" fill="white"/>
</clipPath>
</defs>
</svg>
