<svg preserveAspectRatio="none" width="100%" height="100%" overflow="visible" style="display: block;" viewBox="0 0 154.8 39.387" fill="none" xmlns="http://www.w3.org/2000/svg">
<g id="Logo.svg">
<path id="Vector" d="M0.847814 16.4634L3.74279 1.98855H9.32592C11.0767 1.98855 12.4277 2.37455 13.3789 3.14654C14.3439 3.91854 14.8264 4.98691 14.8264 6.35169C14.8264 7.5786 14.5438 8.6401 13.9786 9.53614C13.4272 10.4184 12.6345 11.1008 11.6006 11.5833C10.5666 12.052 9.33975 12.2864 7.91983 12.2864H3.20515L4.63196 11.0044L3.53601 16.4634H0.847814ZM4.56993 11.3145L3.61872 10.0118H8.02321C9.31905 10.0118 10.3254 9.72226 11.0423 9.14328C11.7591 8.56428 12.1175 7.71647 12.1175 6.59983C12.1175 5.81405 11.8487 5.22816 11.3111 4.84217C10.7873 4.45617 10.029 4.26317 9.03646 4.26317H4.83875L6.24487 2.91908L4.56993 11.3145ZM15.6498 16.4634L18.5448 1.98855H21.233L18.338 16.4634H15.6498ZM22.2532 16.4634L25.1481 1.98855H27.8363L25.3963 14.1888H32.9646L32.5096 16.4634H22.2532ZM32.605 16.4634L42.0136 1.98855H44.6811L48.2792 16.4634H45.6117L42.5926 3.37401H43.6679L35.4792 16.4634H32.605ZM36.2858 13.1135L37.423 11.0044H45.2188L45.5703 13.1135H36.2858ZM52.3501 16.4634L54.7901 4.26317H49.9927L50.4477 1.98855H62.7099L62.2551 4.26317H57.4576L55.0383 16.4634H52.3501ZM66.0095 8.00596H73.2262L72.792 10.2185H65.5752L66.0095 8.00596ZM64.9755 14.2094H73.1642L72.7093 16.4634H61.853L64.7481 1.98855H75.3147L74.8598 4.2425H66.9606L64.9755 14.2094ZM80.4413 16.6702C79.6832 16.6702 78.9456 16.5944 78.2288 16.4428C77.5257 16.2911 76.8778 16.0912 76.285 15.8431C75.706 15.5811 75.2235 15.2917 74.8375 14.9746L75.9748 12.8653C76.3746 13.1962 76.8295 13.4789 77.3395 13.7132C77.8497 13.9476 78.3873 14.1267 78.9525 14.2509C79.5315 14.3749 80.1105 14.437 80.6895 14.437C81.3926 14.437 82.006 14.3543 82.5298 14.1888C83.0537 14.0234 83.4535 13.789 83.7292 13.4857C84.0187 13.1825 84.1635 12.8172 84.1635 12.3898C84.1635 12.0038 84.0325 11.6936 83.7705 11.4592C83.5087 11.2111 83.1571 11.0112 82.716 10.8595C82.2886 10.6941 81.813 10.5425 81.2891 10.4047C80.7791 10.253 80.2622 10.0876 79.7383 9.90839C79.2145 9.71539 78.7388 9.481 78.3115 9.20529C77.8841 8.91581 77.5325 8.55049 77.2568 8.10936C76.995 7.66821 76.864 7.11679 76.864 6.45509C76.864 5.50388 77.1259 4.68363 77.6498 3.99435C78.1874 3.29129 78.9249 2.74676 79.8623 2.36076C80.8136 1.97476 81.9164 1.78177 83.1709 1.78177C84.1083 1.78177 84.9975 1.88516 85.8384 2.09194C86.6793 2.29872 87.4031 2.60201 88.0097 3.00179L86.955 5.13167C86.4174 4.77324 85.8109 4.49753 85.1353 4.30453C84.4599 4.11153 83.7568 4.01504 83.0261 4.01504C82.3093 4.01504 81.689 4.10464 81.1651 4.28386C80.6413 4.46307 80.2415 4.71121 79.9657 5.02827C79.69 5.34534 79.5453 5.71755 79.5315 6.14491C79.5315 6.54469 79.6625 6.86865 79.9243 7.11679C80.1863 7.35115 80.531 7.55103 80.9583 7.71647C81.3857 7.88189 81.8613 8.04043 82.3851 8.19207C82.909 8.32992 83.4259 8.48846 83.936 8.66767C84.4599 8.84688 84.9423 9.07435 85.3835 9.3501C85.8246 9.62581 86.1762 9.97727 86.438 10.4047C86.7 10.8182 86.831 11.3421 86.831 11.9762C86.831 12.9274 86.5622 13.7546 86.0245 14.4576C85.5006 15.1607 84.7562 15.7052 83.7912 16.0912C82.8401 16.4772 81.7234 16.6702 80.4413 16.6702ZM15.6094 37.5308L18.5044 23.056H21.1926L18.2976 37.5308H15.6094ZM22.2128 37.5308L25.1077 23.056H31.7869C33.3033 23.056 34.4682 23.3317 35.2815 23.8832C36.0949 24.4346 36.5016 25.241 36.5016 26.3025C36.5016 27.2124 36.2672 27.9775 35.7985 28.5978C35.3436 29.2182 34.7508 29.6869 34.0202 30.0039C33.3032 30.321 32.5313 30.4796 31.7041 30.4796L32.2211 29.7765C33.3102 29.7765 34.1925 30.0522 34.8679 30.6036C35.5435 31.1413 35.8812 31.934 35.8812 32.9816C35.8812 33.9879 35.6055 34.8289 35.054 35.5044C34.5165 36.1799 33.7651 36.69 32.8001 37.0346C31.849 37.3654 30.7392 37.5308 29.4709 37.5308H22.2128ZM25.3146 35.4217H29.657C30.7736 35.4217 31.6421 35.2149 32.2625 34.8013C32.8828 34.3878 33.193 33.7812 33.193 32.9816C33.193 32.3337 32.9655 31.8857 32.5107 31.6375C32.0557 31.3756 31.4147 31.2447 30.5876 31.2447H25.7694L26.183 29.1562H30.3807C31.0424 29.1562 31.6214 29.0735 32.1177 28.908C32.6278 28.7288 33.0138 28.4599 33.2757 28.1015C33.5514 27.7294 33.6893 27.2813 33.6893 26.7574C33.6893 26.206 33.4687 25.8063 33.0275 25.5581C32.6002 25.2962 31.9868 25.1652 31.1872 25.1652H27.3617L25.3146 35.4217ZM42.1001 29.0735H49.3168L48.8825 31.286H41.6658L42.1001 29.0735ZM41.0661 35.2769H49.2548L48.7998 37.5308H37.9437L40.8387 23.056H51.4053L50.9504 25.31H43.0513L41.0661 35.2769ZM56.532 37.7377C55.7737 37.7377 55.0363 37.6618 54.3194 37.5102C53.6163 37.3586 52.9683 37.1587 52.3756 36.9105C51.7966 36.6486 51.3141 36.3591 50.9281 36.042L52.0655 33.9328C52.4652 34.2637 52.9202 34.5463 53.4302 34.7806C53.9403 35.015 54.4779 35.1942 55.0431 35.3183C55.6221 35.4423 56.2011 35.5044 56.7801 35.5044C57.4832 35.5044 58.0966 35.4217 58.6205 35.2563C59.1443 35.0909 59.5441 34.8565 59.8199 34.5532C60.1093 34.2499 60.254 33.8846 60.254 33.4572C60.254 33.0712 60.1231 32.7611 59.8612 32.5267C59.5993 32.2785 59.2477 32.0787 58.8066 31.927C58.3792 31.7616 57.9036 31.61 57.3798 31.4721C56.8697 31.3204 56.3528 31.155 55.8288 30.9758C55.305 30.7828 54.8294 30.5485 54.4021 30.2727C53.9747 29.9833 53.6232 29.6179 53.3475 29.1768C53.0856 28.7356 52.9546 28.1842 52.9546 27.5225C52.9546 26.5714 53.2165 25.7511 53.7403 25.0618C54.278 24.3587 55.0156 23.8142 55.953 23.4282C56.9042 23.0422 58.007 22.8492 59.2615 22.8492C60.1989 22.8492 61.0881 22.9526 61.929 23.1594C62.7699 23.3662 63.4937 23.6695 64.1002 24.0693L63.0456 26.1991C62.508 25.8407 61.9014 25.565 61.226 25.372C60.5504 25.179 59.8474 25.0825 59.1167 25.0825C58.3999 25.0825 57.7795 25.1721 57.2557 25.3513C56.7318 25.5305 56.3321 25.7787 56.0564 26.0957C55.7807 26.4128 55.6359 26.785 55.6221 27.2124C55.6221 27.6121 55.7531 27.9361 56.015 28.1842C56.2769 28.4186 56.6215 28.6185 57.0489 28.7839C57.4762 28.9493 57.9519 29.1079 58.4757 29.2595C58.9996 29.3973 59.5166 29.5559 60.0266 29.7352C60.5504 29.9143 61.033 30.1418 61.4741 30.4176C61.9152 30.6933 62.2668 31.0447 62.5287 31.4721C62.7906 31.8857 62.9216 32.4095 62.9216 33.0437C62.9216 33.9949 62.6528 34.822 62.1151 35.525C61.5913 36.2281 60.8468 36.7727 59.8819 37.1587C58.9306 37.5447 57.814 37.7377 56.532 37.7377Z" fill="var(--fill-0, white)"/>
<path id="Vector_2" fill-rule="evenodd" clip-rule="evenodd" d="M12.5658 27.1521C13.3335 25.4288 14.5766 22.6911 14.5766 22.6911C14.5766 22.6911 13.273 22.6614 12.4394 23.3076C11.8109 23.7949 11.6418 24.1 11.3229 24.8173C11.7205 25.0308 12.4243 25.7084 12.5658 27.1521ZM3.88453 27.0437C3.11941 25.3203 1.93571 22.6911 1.93571 22.6911C1.93571 22.6911 3.86247 22.3436 4.77387 23.0393C5.48293 23.5804 5.51552 23.8555 5.87388 24.673C4.93072 24.98 3.88453 25.7933 3.88453 27.0437Z" fill="var(--fill-0, white)"/>
<path id="Vector_3" fill-rule="evenodd" clip-rule="evenodd" d="M5.17375 30.2121C4.1615 27.6581 4.26212 26.4403 5.55429 25.6025C5.84732 25.4125 6.10171 25.257 6.11973 25.257C6.13776 25.257 6.12116 25.5343 6.08278 25.8729C6.02845 26.3516 6.10235 26.7486 6.41457 27.6557C7.0984 29.6426 7.07843 30.497 6.32174 31.6428C5.98411 32.154 5.77574 32.2635 5.77574 31.93C5.77574 31.8207 5.50489 31.0475 5.17375 30.2121ZM8.82713 29.5693C10.6573 27.766 11.089 27.0881 11.0964 26.0069L11.1011 25.3219L11.422 25.7109C11.5986 25.9248 11.8378 26.3975 11.9536 26.7613C12.355 28.0219 11.9268 29.198 10.3451 31.18C9.86442 31.7825 9.28342 32.5196 9.05416 32.8181C8.52334 33.5092 7.63933 35.5431 7.51784 36.3528L7.42461 36.9743L7.06948 36.2696C6.31266 34.7678 6.24148 33.2886 6.8606 31.9345C7.14144 31.3203 7.55544 30.8224 8.82713 29.5693Z" fill="var(--fill-0, #97A582)"/>
<path id="Vector_4" fill-rule="evenodd" clip-rule="evenodd" d="M7.76734 25.2328C6.99366 25.7044 6.85709 26.6679 7.46217 27.3869C7.99649 28.0219 8.8944 28.0184 9.53403 27.3789C10.3801 26.5327 9.67656 24.9883 8.44592 24.9903C8.291 24.9906 7.98558 25.0997 7.76734 25.2328Z" fill="var(--fill-0, #97A582)"/>
<path id="Vector_5" d="M101.889 7.36789C101.408 7.36789 100.99 7.28105 100.636 7.10736C100.282 6.92699 100.008 6.67313 99.8139 6.3458C99.6271 6.01846 99.5337 5.63434 99.5337 5.19344C99.5337 4.58552 99.661 4.04776 99.9147 3.58014C100.175 3.10583 100.533 2.73507 100.986 2.46786C101.441 2.19396 101.959 2.05702 102.54 2.05702C103.008 2.05702 103.408 2.14052 103.743 2.30753C104.083 2.46786 104.343 2.71169 104.524 3.03903L104.114 3.28954C103.953 3.02233 103.739 2.82526 103.471 2.69833C103.205 2.5714 102.884 2.50794 102.51 2.50794C102.029 2.50794 101.601 2.62485 101.227 2.85866C100.86 3.08579 100.57 3.39977 100.355 3.80059C100.142 4.20141 100.035 4.65567 100.035 5.16338C100.035 5.71784 100.199 6.14873 100.526 6.45602C100.854 6.76332 101.321 6.91697 101.929 6.91697C102.276 6.91697 102.6 6.85351 102.901 6.72658C103.208 6.59297 103.462 6.40258 103.662 6.15541L104.013 6.43599C103.786 6.72992 103.482 6.96039 103.101 7.1274C102.727 7.28773 102.323 7.36789 101.889 7.36789ZM106.084 7.32781L107.056 2.39771L107.176 2.54803H105.001L105.092 2.0971H109.671L109.581 2.54803H107.396L107.557 2.39771L106.585 7.32781H106.084ZM109.26 9.31191C109.027 9.31191 108.802 9.27179 108.589 9.19164C108.376 9.11146 108.205 8.9979 108.078 8.85093L108.368 8.48017C108.482 8.61378 108.619 8.71064 108.78 8.77077C108.933 8.83757 109.11 8.87097 109.311 8.87097C109.544 8.87097 109.758 8.80751 109.952 8.68058C110.153 8.55365 110.366 8.31651 110.593 7.96912L111.145 7.13743L111.224 7.04724L114.421 2.0971H114.942L111.034 8.09939C110.834 8.40668 110.64 8.64718 110.453 8.82087C110.273 9.00124 110.086 9.12816 109.892 9.20162C109.705 9.27518 109.494 9.31191 109.26 9.31191ZM111.074 7.45808L109.711 2.0971H110.222L111.455 7.01718L111.074 7.45808ZM118.613 7.08732L119.525 2.54803H116.799L116.468 3.87073C116.375 4.23815 116.275 4.60557 116.168 4.97299C116.068 5.33373 115.951 5.66441 115.817 5.96502C115.691 6.26564 115.543 6.50947 115.376 6.69652C115.216 6.87688 115.029 6.98044 114.815 7.00715L114.295 6.88691C114.508 6.90027 114.699 6.82345 114.865 6.65644C115.039 6.48275 115.192 6.24894 115.326 5.955C115.467 5.65439 115.59 5.31702 115.697 4.94293C115.811 4.56883 115.918 4.18805 116.018 3.80059L116.439 2.0971H120.117L119.114 7.08732H118.613ZM113.743 8.63048L114.094 6.88691H119.996L119.655 8.63048H119.174L119.425 7.32781H114.474L114.224 8.63048H113.743ZM121.366 7.32781L122.417 2.0971H122.919L122.017 6.58629L126.606 2.0971H127.097L126.046 7.32781H125.535L126.446 2.8286L121.847 7.32781H121.366ZM131.613 7.32781L131.994 5.39385L132.084 5.54416H130.26C129.666 5.54416 129.215 5.41723 128.908 5.16338C128.6 4.90285 128.446 4.53543 128.446 4.06112C128.446 3.44653 128.671 2.96555 129.118 2.61816C129.572 2.27079 130.19 2.0971 130.972 2.0971H133.116L132.075 7.32781H131.613ZM127.765 7.32781L129.619 5.31369H130.16L128.337 7.32781H127.765ZM132.024 5.27361L132.595 2.36765L132.686 2.53801H130.942C130.321 2.53801 129.833 2.67161 129.479 2.93882C129.132 3.19936 128.958 3.57345 128.958 4.06112C128.958 4.77592 129.412 5.13331 130.321 5.13331H132.154L132.024 5.27361Z" fill="var(--fill-0, white)"/>
<path id="Vector_6" d="M100.907 22.3325C100.079 22.3325 99.4237 22.0954 98.9428 21.6211L99.1929 21.2803C99.3798 21.4807 99.6207 21.6311 99.9147 21.7313C100.215 21.8315 100.546 21.8816 100.907 21.8816C101.274 21.8816 101.601 21.8282 101.889 21.7213C102.176 21.6144 102.403 21.4708 102.57 21.2904C102.737 21.11 102.82 20.9029 102.82 20.6691C102.82 20.3885 102.697 20.1681 102.45 20.0078C102.209 19.8474 101.868 19.7672 101.428 19.7672H100.616L100.686 19.3664H101.388C101.882 19.3664 102.283 19.2696 102.59 19.0758C102.897 18.8821 103.051 18.6349 103.051 18.3343C103.051 18.0604 102.931 17.8466 102.69 17.693C102.457 17.5327 102.132 17.4525 101.718 17.4525C101.438 17.4525 101.157 17.4926 100.876 17.5727C100.603 17.6462 100.319 17.7498 100.025 17.8834L99.8643 17.4625C100.185 17.3088 100.503 17.1953 100.816 17.1218C101.13 17.0416 101.438 17.0016 101.738 17.0016C102.106 17.0016 102.426 17.055 102.7 17.1619C102.974 17.2688 103.185 17.4157 103.331 17.6028C103.485 17.7898 103.562 18.0137 103.562 18.2742C103.562 18.4947 103.502 18.6984 103.382 18.8854C103.262 19.0658 103.084 19.2195 102.85 19.3463C102.623 19.4666 102.353 19.5534 102.039 19.6069L102.029 19.5167C102.457 19.5902 102.777 19.7272 102.991 19.9276C103.211 20.1213 103.321 20.3785 103.321 20.6991C103.321 21.0065 103.218 21.2837 103.011 21.5308C102.804 21.7781 102.517 21.9751 102.149 22.1221C101.781 22.2623 101.367 22.3325 100.907 22.3325ZM108.357 22.0419L109.27 17.5026H106.544L106.213 18.8253C106.12 19.1927 106.02 19.5601 105.913 19.9276C105.813 20.2883 105.695 20.619 105.562 20.9196C105.435 21.2202 105.288 21.4641 105.121 21.6511C104.961 21.8315 104.774 21.935 104.56 21.9617L104.038 21.8415C104.253 21.8548 104.443 21.7781 104.61 21.611C104.784 21.4373 104.937 21.2035 105.071 20.9095C105.211 20.609 105.335 20.2716 105.442 19.8975C105.555 19.5234 105.662 19.1426 105.762 18.7552L106.184 17.0517H109.86L108.858 22.0419H108.357ZM103.488 23.585L103.839 21.8415H109.74L109.4 23.585H108.919L109.17 22.2824H104.219L103.969 23.585H103.488ZM113.425 22.3224C112.957 22.3224 112.55 22.2356 112.203 22.0619C111.855 21.8816 111.584 21.6278 111.391 21.3004C111.204 20.973 111.111 20.589 111.111 20.148C111.111 19.5468 111.237 19.0124 111.491 18.5448C111.752 18.0705 112.105 17.6963 112.553 17.4224C113.008 17.1485 113.525 17.0116 114.107 17.0116C114.58 17.0116 114.988 17.1018 115.329 17.2822C115.676 17.4559 115.943 17.7064 116.13 18.0337C116.324 18.3543 116.422 18.7385 116.422 19.186C116.422 19.7873 116.291 20.3251 116.03 20.7993C115.777 21.267 115.422 21.6377 114.968 21.9116C114.521 22.1855 114.006 22.3224 113.425 22.3224ZM113.465 21.8716C113.939 21.8716 114.361 21.758 114.728 21.5308C115.095 21.3037 115.386 20.9898 115.6 20.5889C115.813 20.1814 115.92 19.7238 115.92 19.2161C115.92 18.655 115.757 18.2241 115.43 17.9235C115.108 17.6161 114.655 17.4625 114.067 17.4625C113.598 17.4625 113.178 17.5794 112.803 17.8133C112.436 18.0403 112.146 18.3543 111.932 18.7552C111.718 19.156 111.612 19.6102 111.612 20.118C111.612 20.6724 111.772 21.1033 112.093 21.4106C112.42 21.7179 112.878 21.8716 113.465 21.8716ZM120.356 22.3224C119.901 22.3224 119.51 22.2423 119.183 22.082C118.863 21.915 118.619 21.6779 118.452 21.3706C118.285 21.0566 118.198 20.6791 118.191 20.2382C118.191 19.6102 118.308 19.0558 118.542 18.5748C118.783 18.0871 119.116 17.7064 119.544 17.4325C119.978 17.1519 120.483 17.0116 121.057 17.0116C121.512 17.0116 121.905 17.0984 122.24 17.2721C122.581 17.4458 122.844 17.6963 123.031 18.0237C123.224 18.351 123.322 18.7385 123.322 19.186C123.322 19.6403 123.248 20.0579 123.102 20.4386C122.954 20.8194 122.747 21.1501 122.48 21.4306C122.22 21.7112 121.909 21.9317 121.548 22.092C121.187 22.2457 120.79 22.3224 120.356 22.3224ZM117.139 24.2264L118.572 17.0517H119.063L118.733 18.685L118.452 19.5969L118.382 20.5589L117.64 24.2264H117.139ZM120.366 21.8716C120.84 21.8716 121.261 21.758 121.628 21.5308C121.996 21.3037 122.283 20.9898 122.49 20.5889C122.704 20.1814 122.81 19.7238 122.81 19.2161C122.81 18.655 122.647 18.2241 122.319 17.9235C121.999 17.6161 121.545 17.4625 120.957 17.4625C120.489 17.4625 120.068 17.5761 119.694 17.8032C119.327 18.0304 119.037 18.3444 118.822 18.7452C118.609 19.146 118.502 19.6035 118.502 20.118C118.502 20.6724 118.666 21.1033 118.993 21.4106C119.321 21.7179 119.778 21.8716 120.366 21.8716ZM126.744 22.3224C126.276 22.3224 125.868 22.2356 125.521 22.0619C125.174 21.8816 124.903 21.6278 124.709 21.3004C124.522 20.973 124.429 20.589 124.429 20.148C124.429 19.5468 124.555 19.0124 124.809 18.5448C125.07 18.0705 125.424 17.6963 125.872 17.4224C126.326 17.1485 126.843 17.0116 127.425 17.0116C127.899 17.0116 128.306 17.1018 128.647 17.2822C128.994 17.4559 129.262 17.7064 129.449 18.0337C129.643 18.3543 129.74 18.7385 129.74 19.186C129.74 19.7873 129.609 20.3251 129.349 20.7993C129.095 21.267 128.74 21.6377 128.286 21.9116C127.839 22.1855 127.324 22.3224 126.744 22.3224ZM126.783 21.8716C127.258 21.8716 127.679 21.758 128.046 21.5308C128.413 21.3037 128.704 20.9898 128.918 20.5889C129.132 20.1814 129.239 19.7238 129.239 19.2161C129.239 18.655 129.075 18.2241 128.748 17.9235C128.426 17.6161 127.973 17.4625 127.385 17.4625C126.917 17.4625 126.496 17.5794 126.122 17.8133C125.754 18.0403 125.464 18.3543 125.251 18.7552C125.036 19.156 124.93 19.6102 124.93 20.118C124.93 20.6724 125.09 21.1033 125.411 21.4106C125.738 21.7179 126.196 21.8716 126.783 21.8716ZM130.838 22.2824L131.891 17.0517H134.075C134.609 17.0517 135.013 17.1485 135.287 17.3423C135.568 17.536 135.708 17.82 135.708 18.194C135.708 18.6416 135.521 19.0024 135.147 19.2763C134.78 19.5501 134.299 19.6871 133.704 19.6871L133.834 19.5368C134.382 19.5368 134.78 19.627 135.027 19.8073C135.274 19.981 135.398 20.2616 135.398 20.649C135.398 21.1568 135.197 21.5576 134.796 21.8515C134.396 22.1388 133.838 22.2824 133.123 22.2824H130.838ZM131.41 21.8716H133.163C133.711 21.8716 134.138 21.7647 134.445 21.5509C134.753 21.3304 134.907 21.0265 134.907 20.6391C134.907 20.3451 134.81 20.138 134.616 20.0177C134.429 19.8908 134.118 19.8274 133.684 19.8274H131.82L131.41 21.8716ZM131.901 19.4366H133.584C134.065 19.4366 134.453 19.3297 134.747 19.1159C135.047 18.9022 135.197 18.6182 135.197 18.2642C135.197 17.9902 135.096 17.7898 134.897 17.663C134.696 17.5293 134.396 17.4625 133.995 17.4625H132.291L131.901 19.4366ZM139.181 22.3224C138.714 22.3224 138.306 22.2356 137.958 22.0619C137.611 21.8816 137.341 21.6278 137.146 21.3004C136.96 20.973 136.866 20.589 136.866 20.148C136.866 19.5468 136.993 19.0124 137.247 18.5448C137.507 18.0705 137.862 17.6963 138.309 17.4224C138.763 17.1485 139.282 17.0116 139.862 17.0116C140.337 17.0116 140.744 17.1018 141.085 17.2822C141.432 17.4559 141.7 17.7064 141.887 18.0337C142.08 18.3543 142.177 18.7385 142.177 19.186C142.177 19.7873 142.047 20.3251 141.786 20.7993C141.532 21.267 141.179 21.6377 140.724 21.9116C140.276 22.1855 139.762 22.3224 139.181 22.3224ZM139.221 21.8716C139.696 21.8716 140.116 21.758 140.483 21.5308C140.851 21.3037 141.142 20.9898 141.355 20.5889C141.569 20.1814 141.676 19.7238 141.676 19.2161C141.676 18.655 141.512 18.2241 141.185 17.9235C140.864 17.6161 140.41 17.4625 139.822 17.4625C139.355 17.4625 138.933 17.5794 138.56 17.8133C138.192 18.0403 137.901 18.3543 137.688 18.7552C137.474 19.156 137.367 19.6102 137.367 20.118C137.367 20.6724 137.527 21.1033 137.848 21.4106C138.175 21.7179 138.633 21.8716 139.221 21.8716ZM143.276 22.2824L144.318 17.0517H147.905L147.815 17.5026H144.589L144.749 17.3623L143.777 22.2824H143.276ZM149.994 22.3224C149.527 22.3224 149.119 22.2356 148.772 22.0619C148.424 21.8816 148.154 21.6278 147.959 21.3004C147.773 20.973 147.679 20.589 147.679 20.148C147.679 19.5468 147.807 19.0124 148.06 18.5448C148.32 18.0705 148.675 17.6963 149.122 17.4224C149.576 17.1485 150.095 17.0116 150.675 17.0116C151.15 17.0116 151.557 17.1018 151.898 17.2822C152.245 17.4559 152.513 17.7064 152.7 18.0337C152.893 18.3543 152.99 18.7385 152.99 19.186C152.99 19.7873 152.86 20.3251 152.599 20.7993C152.345 21.267 151.992 21.6377 151.537 21.9116C151.089 22.1855 150.576 22.3224 149.994 22.3224ZM150.034 21.8716C150.509 21.8716 150.929 21.758 151.296 21.5308C151.664 21.3037 151.955 20.9898 152.168 20.5889C152.382 20.1814 152.489 19.7238 152.489 19.2161C152.489 18.655 152.325 18.2241 151.998 17.9235C151.677 17.6161 151.223 17.4625 150.635 17.4625C150.168 17.4625 149.747 17.5794 149.373 17.8133C149.006 18.0403 148.715 18.3543 148.501 18.7552C148.287 19.156 148.18 19.6102 148.18 20.118C148.18 20.6724 148.341 21.1033 148.661 21.4106C148.989 21.7179 149.446 21.8716 150.034 21.8716Z" fill="var(--fill-0, white)"/>
<path id="Vector_7" d="M103.171 36.9966L104.083 32.4573H101.357L101.027 33.7799C100.933 34.1473 100.833 34.5148 100.726 34.8822C100.626 35.2429 100.509 35.5736 100.375 35.8742C100.249 36.1748 100.102 36.4187 99.9348 36.6057C99.7746 36.7861 99.5877 36.8897 99.3734 36.9164L98.8522 36.7961C99.0665 36.8095 99.257 36.7327 99.4237 36.5657C99.5969 36.3919 99.7507 36.1582 99.8845 35.8642C100.025 35.5636 100.148 35.2263 100.255 34.8522C100.369 34.4781 100.476 34.0972 100.576 33.7098L100.996 32.0063H104.674L103.672 36.9966H103.171ZM98.3017 38.5397L98.6516 36.7961H104.554L104.213 38.5397H103.732L103.983 37.237H99.0326L98.7826 38.5397H98.3017ZM105.924 37.237L106.976 32.0063H109.161C109.695 32.0063 110.099 32.1031 110.373 32.2969C110.654 32.4906 110.794 32.7746 110.794 33.1486C110.794 33.5963 110.607 33.957 110.232 34.2309C109.865 34.5047 109.384 34.6417 108.79 34.6417L108.92 34.4914C109.467 34.4914 109.865 34.5816 110.112 34.7619C110.36 34.9356 110.483 35.2162 110.483 35.6037C110.483 36.1114 110.283 36.5122 109.882 36.8061C109.481 37.0934 108.923 37.237 108.209 37.237H105.924ZM106.495 36.8262H108.248C108.796 36.8262 109.224 36.7193 109.532 36.5055C109.838 36.2851 109.992 35.9811 109.992 35.5937C109.992 35.2997 109.895 35.0926 109.702 34.9723C109.514 34.8455 109.204 34.782 108.769 34.782H106.905L106.495 36.8262ZM106.986 34.3912H108.67C109.15 34.3912 109.538 34.2844 109.832 34.0706C110.132 33.8568 110.283 33.5728 110.283 33.2188C110.283 32.9449 110.183 32.7445 109.982 32.6176C109.782 32.484 109.481 32.4171 109.08 32.4171H107.377L106.986 34.3912ZM111.952 37.237L113.004 32.0063H113.505L112.603 36.4955L117.193 32.0063H117.684L116.631 37.237H116.12L117.032 32.7378L112.432 37.237H111.952ZM124.975 37.237L123.603 34.6116L124.043 34.4213L125.557 37.237H124.975ZM122.319 34.792L122.4 34.3812H124.023L123.943 34.792H122.319ZM124.074 34.6718L123.593 34.5916L125.897 32.0063H126.478L124.074 34.6718ZM118.542 37.237H117.911L120.546 34.3912L120.937 34.6116L118.542 37.237ZM121.989 37.237H121.488L122.54 32.0063H123.041L121.989 37.237ZM122.139 34.792H120.526L120.616 34.3812H122.22L122.139 34.792ZM120.466 34.6718L119.123 32.0063H119.654L120.937 34.5916L120.466 34.6718ZM129.055 37.2771C128.566 37.2771 128.142 37.1903 127.781 37.0166C127.421 36.8362 127.144 36.5824 126.95 36.255C126.763 35.9277 126.669 35.5369 126.669 35.0826C126.669 34.4881 126.793 33.957 127.04 33.4894C127.294 33.0218 127.635 32.651 128.063 32.3771C128.497 32.1031 128.984 31.9662 129.525 31.9662C129.986 31.9662 130.38 32.053 130.708 32.2268C131.035 32.4005 131.289 32.651 131.469 32.9783C131.656 33.2989 131.749 33.6898 131.749 34.1507C131.749 34.2509 131.743 34.3511 131.73 34.4513C131.716 34.5515 131.703 34.6451 131.69 34.7319H127.05L127.12 34.3411H131.449L131.248 34.5114C131.323 34.0505 131.292 33.6663 131.159 33.3591C131.025 33.0451 130.814 32.808 130.528 32.6476C130.246 32.4806 129.909 32.3971 129.515 32.3971C129.061 32.3971 128.653 32.514 128.293 32.7478C127.939 32.975 127.661 33.289 127.461 33.6898C127.26 34.0839 127.16 34.5415 127.16 35.0626C127.16 35.6304 127.324 36.0679 127.651 36.3753C127.978 36.6759 128.46 36.8262 129.094 36.8262C129.469 36.8262 129.809 36.7661 130.116 36.6458C130.43 36.5189 130.688 36.3452 130.888 36.1247L131.118 36.4755C130.891 36.7227 130.594 36.9197 130.227 37.0666C129.866 37.207 129.475 37.2771 129.055 37.2771ZM132.913 37.237L133.955 32.0063H134.456L133.975 34.3912H137.532L138.013 32.0063H138.514L137.462 37.237H136.961L137.452 34.8321H133.895L133.414 37.237H132.913ZM139.616 37.237L140.668 32.0063H141.169L140.267 36.4955L144.857 32.0063H145.348L144.296 37.237H143.784L144.696 32.7378L140.097 37.237H139.616ZM149.864 37.237L150.244 35.3031L150.335 35.4534H148.511C147.916 35.4534 147.465 35.3265 147.158 35.0726C146.85 34.812 146.697 34.4446 146.697 33.9704C146.697 33.3557 146.921 32.8748 147.369 32.5274C147.823 32.18 148.44 32.0063 149.223 32.0063H151.367L150.325 37.237H149.864ZM146.016 37.237L147.87 35.2229H148.41L146.586 37.237H146.016ZM150.274 35.1828L150.846 32.2769L150.936 32.4472H149.192C148.57 32.4472 148.083 32.5808 147.73 32.848C147.382 33.1086 147.208 33.4827 147.208 33.9704C147.208 34.6851 147.663 35.0425 148.57 35.0425H150.404L150.274 35.1828Z" fill="var(--fill-0, white)"/>
</g>
</svg>
