<svg preserveAspectRatio="none" width="100%" height="100%" overflow="visible" style="display: block;" viewBox="0 0 46.8 46.8" fill="none" xmlns="http://www.w3.org/2000/svg">
<g id="Menu.svg">
<path id="Vector" d="M5.85 7.3125C5.85 6.92462 6.00409 6.55263 6.27836 6.27836C6.55263 6.00409 6.92462 5.85 7.3125 5.85H39.4875C39.8754 5.85 40.2474 6.00409 40.5217 6.27836C40.7959 6.55263 40.95 6.92462 40.95 7.3125C40.95 7.70038 40.7959 8.07237 40.5217 8.34664C40.2474 8.62091 39.8754 8.775 39.4875 8.775H7.3125C6.92462 8.775 6.55263 8.62091 6.27836 8.34664C6.00409 8.07237 5.85 7.70038 5.85 7.3125ZM5.85 21.9375C5.85 21.5496 6.00409 21.1776 6.27836 20.9033C6.55263 20.6291 6.92462 20.475 7.3125 20.475H39.4875C39.8754 20.475 40.2474 20.6291 40.5217 20.9033C40.7959 21.1776 40.95 21.5496 40.95 21.9375C40.95 22.3254 40.7959 22.6974 40.5217 22.9717C40.2474 23.2459 39.8754 23.4 39.4875 23.4H7.3125C6.92462 23.4 6.55263 23.2459 6.27836 22.9717C6.00409 22.6974 5.85 22.3254 5.85 21.9375ZM7.3125 35.1C6.92462 35.1 6.55263 35.2541 6.27836 35.5283C6.00409 35.8026 5.85 36.1746 5.85 36.5625C5.85 36.9504 6.00409 37.3224 6.27836 37.5967C6.55263 37.8709 6.92462 38.025 7.3125 38.025H39.4875C39.8754 38.025 40.2474 37.8709 40.5217 37.5967C40.7959 37.3224 40.95 36.9504 40.95 36.5625C40.95 36.1746 40.7959 35.8026 40.5217 35.5283C40.2474 35.2541 39.8754 35.1 39.4875 35.1H7.3125Z" fill="var(--fill-0, #FFFFFA)" fill-opacity="0.8"/>
</g>
</svg>
