<svg preserveAspectRatio="none" width="100%" height="100%" overflow="visible" style="display: block;" viewBox="0 0 48 48" fill="none" xmlns="http://www.w3.org/2000/svg">
<g id="Frame_899.svg">
<path id="Vector" d="M39.4286 24C39.4286 15.479 32.521 8.57143 24 8.57143C15.479 8.57143 8.57143 15.479 8.57143 24C8.57143 32.521 15.479 39.4286 24 39.4286C32.521 39.4286 39.4286 32.521 39.4286 24Z" fill="var(--fill-0, white)" fill-opacity="0.5"/>
<path id="Vector_2" d="M20.3985 19.3457C21.3565 18.4068 22.6464 17.8839 23.9877 17.8907C25.3292 17.8975 26.6137 18.4334 27.5623 19.3819C28.5108 20.3304 29.0467 21.615 29.0535 22.9563C29.0602 24.2978 28.5373 25.5877 27.5985 26.5457L24.9075 29.2367C24.6663 29.4777 24.3393 29.6132 23.9985 29.6132C23.6575 29.6132 23.3306 29.4777 23.0895 29.2367L20.3985 26.5457C19.4437 25.5909 18.9074 24.296 18.9074 22.9457C18.9074 21.5955 19.4437 20.3006 20.3985 19.3457Z" stroke="var(--stroke-0, #FFFFFA)" stroke-width="1.15714" stroke-linejoin="round"/>
<path id="Vector_3" d="M24 24.8743C25.0651 24.8743 25.9286 24.0109 25.9286 22.9457C25.9286 21.8806 25.0651 21.0171 24 21.0171C22.9349 21.0171 22.0714 21.8806 22.0714 22.9457C22.0714 24.0109 22.9349 24.8743 24 24.8743Z" stroke="var(--stroke-0, #FFFFFA)" stroke-width="1.15714" stroke-linecap="round" stroke-linejoin="round"/>
</g>
</svg>
